<svg version="1.2" xmlns="http://www.w3.org/2000/svg" viewBox="0 0 1500 1000" width="1500" height="1000"><defs><linearGradient id="P" gradientUnits="userSpaceOnUse"/><radialGradient id="g1" cx="0" cy="0" r="1" href="#P" gradientTransform="matrix(0,914.545,-914.545,0,712,-86)"><stop stop-color="#52bcfa"/><stop offset="1" stop-color="#3668d7"/></radialGradient></defs><style>.a{fill:url(#g1)}.b{opacity:.5;fill:none;stroke:#e6f0ff;stroke-miterlimit:10;stroke-width:2}.c{opacity:.2;fill:#e6f0ff}.d{opacity:.1;fill:#e6f0ff}.e{display:none;fill:#274554}.f{display:none;fill:#34345a}.g{display:none;fill:#ff3657}.h{display:none;fill:#f6f5fb}.i{fill:#56dfe9}.j{fill:#f6f5fb}.k{fill:none;stroke:#fff;stroke-miterlimit:10;stroke-width:2}.l{opacity:.9;display:none;fill:#fff}.m{display:none;fill:#fff}.n{fill:#507823}.o{fill:#f08900}.p{fill:#ff3657}.q{fill:#fff}.r{fill:#293036}.s{fill:#d45538}.t{fill:#562923}.u{fill:#252b30}.v{fill:none;stroke:#3d4852;stroke-miterlimit:10}.w{fill:#ebebeb}.x{fill:#fcab42}.y{fill:#ffb557}.z{fill:#f9fbfc}</style><path class="a" d="m1500 1000h-1500v-1000h1500z"/><path class="b" d="m1319.7 724.8l-458.9-49.9c-32.9-3.6-57.9-31.4-57.9-64.5v-263.3c0-33.1 25-60.9 57.9-64.5l458.9-49.9c38.4-4.1 72 25.9 72 64.6v363c0 38.6-33.6 68.7-72 64.5z"/><path class="c" d="m1290.9 692.9l-399.4-43.4c-28.7-3.2-50.4-27.4-50.4-56.2v-229.1c0-28.8 21.7-53 50.4-56.1l399.4-43.4c33.4-3.7 62.5 22.5 62.5 56.1v315.9c0 33.6-29.1 59.8-62.5 56.2z"/><path class="d" d="m1198.3 760.8l-399.4-43.4c-28.6-3.1-50.4-27.3-50.4-56.1v-229.1c0-28.8 21.8-53 50.4-56.2l399.4-43.4c33.4-3.6 62.6 22.6 62.6 56.2v315.9c0 33.6-29.2 59.7-62.6 56.1z"/><g style="display:none"><path class="e" d="m135.8 420c13.7 0 23.7-9.3 23.7-22 0-12.7-10-22-23.7-22-13.7 0-23.7 9.3-23.7 22 0 12.7 10 22 23.7 22zm0-11.5c-5.2 0-9.4-4-9.4-10.5 0-6.5 4.2-10.5 9.4-10.5 5.2 0 9.4 4 9.4 10.5 0 6.5-4.2 10.5-9.4 10.5zm56.4-31.5v19.1l-15.9-19.1h-11.7v42h13.8v-19.1l16 19.1h11.6v-42zm20.7 42h33.1v-11h-19v-31h-14.1zm37 0h14.2v-42h-14.2zm48.6-42v19.1l-16-19.1h-11.6v42h13.8v-19.1l16 19.1h11.6v-42zm34.6 31.3v-5.5h17.7v-10.2h-17.7v-4.9h20.2v-10.7h-34.2v42h35v-10.7zm58.3 0v-5.5h17.8v-10.2h-17.8v-4.9h20.3v-10.7h-34.2v42h34.9v-10.7zm26.5 10.7h20.7c14 0 23.7-8 23.7-21 0-13-9.7-21-23.7-21h-20.7zm14.2-11v-20h5.9c5.9 0 10 3.6 10 10 0 6.4-4.1 10-10 10zm55.5 12c12.9 0 20.5-7.3 20.5-19.9v-23.1h-14v22.7c0 6.4-2.4 8.8-6.4 8.8-3.9 0-6.4-2.4-6.4-8.8v-22.7h-14.2v23.1c0 12.6 7.6 19.9 20.5 19.9zm48.7 0c8.2 0 14.7-3 18.8-8.4l-8.9-8c-2.5 3.1-5.4 4.9-9.2 4.9-5.9 0-9.9-4.1-9.9-10.5 0-6.4 4-10.5 9.9-10.5 3.8 0 6.7 1.8 9.2 4.9l8.9-8c-4.1-5.4-10.6-8.4-18.8-8.4-13.5 0-23.4 9.1-23.4 22 0 12.9 9.9 22 23.4 22zm53.7-1h14.7l-18.4-42h-13.9l-18.4 42h14.4l2.8-7.3h16zm-14.9-17.5l4.1-10.6 4.1 10.6zm38.8 17.5h14.2v-31h12.3v-11h-38.8v11h12.3zm30.1 0h14.2v-42h-14.2zm43 0.9c13.7 0 23.7-9.2 23.7-21.9 0-12.8-10-22-23.7-22-13.6 0-23.7 9.2-23.7 22 0 12.7 10.1 21.9 23.7 21.9zm0-11.4c-5.2 0-9.4-4-9.4-10.5 0-6.6 4.2-10.5 9.4-10.5 5.3 0 9.5 3.9 9.5 10.5 0 6.5-4.2 10.5-9.5 10.5zm56.5-31.5v19l-16-19h-11.6v42h13.8v-19.1l16 19.1h11.6v-42z"/><path class="f" d="m120.3 477h-9.6v-17.1h2v15.3h7.6zm13.7-6.4q0 3.1-1.6 4.9-1.6 1.7-4.4 1.7-1.7 0-3.1-0.8-1.3-0.8-2-2.3-0.8-1.5-0.8-3.5 0-3.2 1.6-4.9 1.6-1.8 4.4-1.8 2.7 0 4.3 1.8 1.6 1.8 1.6 4.9zm-9.8 0q0 2.4 0.9 3.7 1 1.3 2.9 1.3 2 0 2.9-1.3 1-1.3 1-3.7 0-2.5-1-3.8-0.9-1.2-2.9-1.2-1.9 0-2.9 1.2-0.9 1.3-0.9 3.8zm19-6.7q0.9 0 1.6 0.2l-0.3 1.8q-0.8-0.2-1.4-0.2-1.6 0-2.7 1.3-1.1 1.2-1.1 3.1v6.9h-1.9v-12.8h1.6l0.2 2.3h0.1q0.7-1.2 1.7-1.9 1-0.7 2.2-0.7zm8.9 13.3q-2.8 0-4.5-1.7-1.6-1.7-1.6-4.8 0-3.1 1.5-5 1.5-1.8 4.1-1.8 2.4 0 3.8 1.6 1.4 1.6 1.4 4.2v1.2h-8.8q0 2.3 1.1 3.5 1.1 1.1 3.1 1.1 2 0 4.1-0.8v1.7q-1.1 0.4-2 0.6-0.9 0.2-2.2 0.2zm-0.5-11.7q-1.6 0-2.5 1.1-0.9 1-1.1 2.7h6.7q0-1.8-0.8-2.8-0.8-1-2.3-1zm26.9 11.5h-2v-8.4q0-1.5-0.6-2.3-0.7-0.7-2.1-0.7-1.8 0-2.7 1-0.8 1.1-0.8 3.2v7.2h-2v-8.4q0-1.5-0.6-2.3-0.7-0.7-2.1-0.7-1.8 0-2.7 1.1-0.8 1.1-0.8 3.6v6.7h-2v-12.8h1.6l0.3 1.7h0.1q0.6-0.9 1.6-1.5 1-0.5 2.2-0.5 3 0 4 2.2h0.1q0.5-1 1.6-1.6 1.1-0.6 2.5-0.6 2.2 0 3.3 1.1 1.1 1.2 1.1 3.6zm32.6-12.8v12.8h-1.9v-12.8zm-2.1-3.5q0-0.7 0.3-1 0.3-0.3 0.8-0.3 0.5 0 0.8 0.3 0.4 0.3 0.4 1 0 0.6-0.4 1-0.3 0.3-0.8 0.3-0.5 0-0.8-0.3-0.3-0.4-0.3-1zm12.2 16.6q-1.3 0-2.3-0.5-1-0.5-1.7-1.4h-0.2q0.2 1.1 0.2 2.1v5.3h-2v-18.6h1.6l0.3 1.7h0.1q0.7-1 1.7-1.5 1-0.5 2.3-0.5 2.6 0 3.9 1.8 1.4 1.7 1.4 4.9 0 3.1-1.4 4.9-1.4 1.8-3.9 1.8zm-0.3-11.7q-1.9 0-2.8 1.1-0.9 1.1-0.9 3.4v0.5q0 2.7 0.9 3.9 0.9 1.1 2.9 1.1 1.6 0 2.6-1.3 0.9-1.4 0.9-3.7 0-2.4-0.9-3.7-1-1.3-2.7-1.3zm17.3 7.9q0 1.8-1.3 2.8-1.4 1-3.8 1-2.5 0-4-0.9v-1.8q1 0.5 2 0.8 1.1 0.2 2.1 0.2 1.5 0 2.3-0.4 0.8-0.5 0.8-1.5 0-0.8-0.6-1.3-0.7-0.5-2.5-1.3-1.8-0.6-2.6-1.1-0.7-0.5-1.1-1.2-0.4-0.6-0.4-1.5 0-1.5 1.3-2.4 1.3-1 3.5-1 2.1 0 4 0.9l-0.6 1.6q-2-0.8-3.5-0.8-1.4 0-2.1 0.4-0.7 0.4-0.7 1.2 0 0.5 0.2 0.9 0.3 0.3 0.9 0.7 0.6 0.3 2.2 0.9 2.3 0.8 3.1 1.7 0.8 0.8 0.8 2.1zm3-9.3h2v8.3q0 1.6 0.7 2.3 0.7 0.8 2.3 0.8 2 0 2.9-1.1 0.9-1.1 0.9-3.6v-6.7h2v12.8h-1.6l-0.3-1.7h-0.1q-0.6 0.9-1.7 1.4-1 0.6-2.4 0.6-2.3 0-3.5-1.2-1.2-1.1-1.2-3.5zm33.2 12.8h-1.9v-8.3q0-1.6-0.7-2.3-0.6-0.8-2-0.8-1.8 0-2.7 1-0.9 1.1-0.9 3.2v7.2h-1.9v-8.3q0-1.6-0.7-2.3-0.6-0.8-2-0.8-1.8 0-2.7 1.1-0.8 1.1-0.8 3.6v6.7h-2v-12.8h1.6l0.3 1.7h0.1q0.6-0.9 1.6-1.4 1-0.6 2.2-0.6 3 0 3.9 2.2h0.1q0.6-1 1.7-1.6 1.1-0.6 2.5-0.6 2.2 0 3.2 1.2 1.1 1.1 1.1 3.5zm39.8 0l-0.3-1.7h-0.1q-1.3 2-4 2-2.5 0-3.9-1.7-1.4-1.8-1.4-4.9 0-3.2 1.4-5 1.4-1.7 3.9-1.7 2.6 0 4 1.9h0.1v-1l-0.1-0.9v-5.2h2v18.2zm-4.2-1.4q2 0 2.9-1 0.9-1.1 0.9-3.5v-0.4q0-2.8-0.9-3.9-0.9-1.2-2.9-1.2-1.7 0-2.6 1.3-0.9 1.4-0.9 3.8 0 2.4 0.9 3.7 0.9 1.2 2.6 1.2zm20.9-5q0 3.1-1.5 4.9-1.6 1.8-4.4 1.8-1.7 0-3.1-0.8-1.3-0.8-2-2.4-0.8-1.5-0.8-3.5 0-3.1 1.6-4.9 1.6-1.7 4.4-1.7 2.7 0 4.3 1.8 1.5 1.7 1.5 4.8zm-9.7 0q0 2.5 0.9 3.8 1 1.2 2.9 1.2 2 0 2.9-1.2 1-1.3 1-3.8 0-2.4-1-3.7-0.9-1.3-2.9-1.3-1.9 0-2.9 1.3-0.9 1.2-0.9 3.7zm15.1-11.8v18.2h-1.9v-18.2zm15.2 11.8q0 3.1-1.6 4.9-1.6 1.8-4.4 1.8-1.7 0-3-0.8-1.4-0.8-2.1-2.4-0.7-1.5-0.7-3.5 0-3.1 1.5-4.9 1.6-1.7 4.4-1.7 2.7 0 4.3 1.8 1.6 1.7 1.6 4.8zm-9.8 0q0 2.5 1 3.8 1 1.2 2.9 1.2 1.9 0 2.9-1.2 1-1.3 1-3.8 0-2.4-1-3.7-1-1.3-3-1.3-1.9 0-2.8 1.3-1 1.2-1 3.7zm19-6.6q0.9 0 1.6 0.1l-0.3 1.8q-0.8-0.2-1.4-0.2-1.6 0-2.7 1.3-1.1 1.3-1.1 3.1v6.9h-1.9v-12.8h1.6l0.2 2.4h0.1q0.7-1.3 1.7-2 1-0.6 2.2-0.6zm39 9.5q0 1.8-1.3 2.8-1.4 1-3.8 1-2.5 0-4-0.8v-1.8q1 0.4 2 0.7 1.1 0.3 2.1 0.3 1.5 0 2.3-0.5 0.8-0.5 0.8-1.5 0-0.8-0.6-1.3-0.7-0.5-2.6-1.2-1.8-0.7-2.5-1.2-0.8-0.5-1.1-1.1-0.4-0.7-0.4-1.6 0-1.5 1.3-2.4 1.2-0.9 3.5-0.9 2 0 4 0.8l-0.7 1.6q-1.9-0.8-3.5-0.8-1.3 0-2.1 0.4-0.7 0.5-0.7 1.2 0 0.5 0.3 0.9 0.3 0.4 0.9 0.7 0.5 0.3 2.2 0.9 2.3 0.9 3.1 1.7 0.8 0.9 0.8 2.1zm5.1-9.3v12.8h-1.9v-12.8zm-2.1-3.5q0-0.7 0.3-1 0.3-0.3 0.8-0.3 0.5 0 0.8 0.3 0.3 0.4 0.3 1 0 0.7-0.3 1-0.3 0.3-0.8 0.3-0.5 0-0.8-0.3-0.3-0.3-0.3-1zm10.3 15q0.6 0 1-0.1 0.5-0.1 0.8-0.2v1.5q-0.3 0.2-0.9 0.3-0.7 0.1-1.1 0.1-3.8 0-3.8-4v-7.6h-1.8v-0.9l1.8-0.8 0.8-2.8h1.2v3h3.7v1.5h-3.7v7.6q0 1.1 0.5 1.7 0.6 0.7 1.5 0.7zm40.4 1.3h-1.4l-0.4-1.8h-0.1q-0.9 1.2-1.9 1.7-1 0.4-2.4 0.4-1.9 0-3-1-1.1-1-1.1-2.8 0-3.9 6.3-4.1l2.1-0.1v-0.8q0-1.5-0.6-2.2-0.7-0.7-2.1-0.7-1.6 0-3.6 1l-0.6-1.5q0.9-0.5 2.1-0.8 1.1-0.3 2.2-0.3 2.3 0 3.4 1 1.1 1 1.1 3.3zm-5.8-1.4q1.8 0 2.8-1 1.1-1 1.1-2.8v-1.1h-2q-2.3 0.1-3.3 0.8-1 0.6-1 1.9 0 1.1 0.6 1.7 0.7 0.5 1.8 0.5zm28.2 1.4h-2v-8.4q0-1.5-0.6-2.3-0.7-0.8-2.1-0.8-1.8 0-2.7 1.1-0.8 1-0.8 3.2v7.2h-2v-8.4q0-1.5-0.6-2.3-0.7-0.8-2.1-0.8-1.8 0-2.7 1.2-0.8 1-0.8 3.5v6.8h-2v-12.9h1.6l0.3 1.8h0.1q0.6-0.9 1.6-1.5 1-0.5 2.2-0.5 3 0 4 2.2h0.1q0.5-1 1.6-1.6 1.1-0.6 2.5-0.6 2.2 0 3.3 1.1 1.1 1.1 1.1 3.6zm9.4 0.2q-2.9 0-4.5-1.7-1.6-1.7-1.6-4.8 0-3.1 1.5-5 1.5-1.8 4.1-1.8 2.4 0 3.8 1.6 1.4 1.6 1.4 4.2v1.2h-8.8q0 2.3 1.1 3.5 1.1 1.1 3.1 1.1 2 0 4.1-0.8v1.7q-1.1 0.4-2 0.6-0.9 0.2-2.2 0.2zm-0.5-11.7q-1.6 0-2.5 1.1-0.9 1-1.1 2.7h6.7q0-1.8-0.8-2.8-0.8-1-2.3-1zm12.7 10.1q0.5 0 1 0 0.5-0.1 0.7-0.2v1.5q-0.3 0.1-0.9 0.2-0.6 0.1-1.1 0.1-3.7 0-3.7-3.9v-7.6h-1.9v-1l1.9-0.8 0.8-2.7h1.1v3h3.7v1.5h-3.7v7.5q0 1.2 0.6 1.8 0.5 0.6 1.5 0.6zm4.2-1.4h2.1l0.2 0.3q-0.3 1.1-0.9 2.7-0.5 1.6-1.2 2.9h-1.4q0.3-1.2 0.7-3 0.4-1.8 0.5-2.9zm37.9 3q-2.8 0-4.4-1.7-1.5-1.7-1.5-4.8 0-3.3 1.6-5 1.5-1.8 4.4-1.8 0.9 0 1.8 0.2 1 0.2 1.5 0.5l-0.6 1.6q-0.7-0.2-1.4-0.4-0.8-0.2-1.4-0.2-3.9 0-3.9 5 0 2.4 1 3.7 0.9 1.2 2.8 1.2 1.6 0 3.3-0.7v1.8q-1.3 0.6-3.2 0.6zm17.3-6.6q0 3.1-1.5 4.9-1.6 1.7-4.4 1.7-1.7 0-3.1-0.8-1.3-0.8-2-2.3-0.8-1.5-0.8-3.5 0-3.2 1.6-4.9 1.6-1.8 4.4-1.8 2.7 0 4.2 1.8 1.6 1.8 1.6 4.9zm-9.7 0q0 2.4 0.9 3.7 1 1.3 2.9 1.3 1.9 0 2.9-1.3 1-1.3 1-3.7 0-2.5-1-3.8-1-1.2-2.9-1.2-1.9 0-2.9 1.2-0.9 1.3-0.9 3.8zm23.9 6.4h-2v-8.3q0-1.6-0.7-2.4-0.7-0.7-2.2-0.7-2 0-3 1.1-0.9 1-0.9 3.6v6.7h-2v-12.8h1.6l0.3 1.7h0.1q0.6-0.9 1.7-1.5 1.1-0.5 2.4-0.5 2.3 0 3.5 1.1 1.2 1.2 1.2 3.6zm12.3-3.5q0 1.8-1.4 2.8-1.3 1-3.7 1-2.6 0-4-0.9v-1.8q0.9 0.5 2 0.8 1 0.2 2 0.2 1.5 0 2.4-0.4 0.8-0.5 0.8-1.5 0-0.8-0.7-1.3-0.6-0.5-2.5-1.3-1.8-0.6-2.6-1.1-0.7-0.5-1.1-1.2-0.3-0.6-0.3-1.5 0-1.5 1.2-2.4 1.3-1 3.5-1 2.1 0 4.1 0.9l-0.7 1.6q-1.9-0.8-3.5-0.8-1.4 0-2.1 0.4-0.7 0.4-0.7 1.2 0 0.5 0.3 0.9 0.2 0.3 0.8 0.7 0.6 0.3 2.3 0.9 2.3 0.8 3.1 1.7 0.8 0.8 0.8 2.1zm8.6 3.8q-2.9 0-4.5-1.8-1.7-1.7-1.7-4.8 0-3.1 1.5-4.9 1.6-1.9 4.1-1.9 2.5 0 3.9 1.6 1.4 1.6 1.4 4.2v1.2h-8.9q0.1 2.3 1.2 3.5 1.1 1.2 3 1.2 2.1 0 4.1-0.9v1.7q-1 0.5-1.9 0.7-0.9 0.2-2.2 0.2zm-0.6-11.7q-1.5 0-2.4 1-1 1-1.1 2.8h6.7q0-1.9-0.8-2.8-0.9-1-2.4-1zm13.7 11.7q-2.8 0-4.3-1.8-1.5-1.7-1.5-4.8 0-3.2 1.5-5 1.6-1.8 4.5-1.8 0.9 0 1.8 0.2 0.9 0.2 1.5 0.5l-0.6 1.7q-0.7-0.3-1.4-0.5-0.8-0.1-1.4-0.1-3.9 0-3.9 5 0 2.3 0.9 3.6 1 1.3 2.9 1.3 1.6 0 3.3-0.7v1.7q-1.3 0.7-3.3 0.7zm10.5-1.7q0.5 0 1 0 0.4-0.1 0.7-0.2v1.5q-0.3 0.2-0.9 0.3-0.6 0.1-1.1 0.1-3.7 0-3.7-4v-7.6h-1.9v-1l1.9-0.8 0.8-2.7h1.1v3h3.7v1.5h-3.7v7.5q0 1.2 0.6 1.8 0.5 0.6 1.5 0.6zm9.7 1.7q-2.8 0-4.5-1.8-1.6-1.7-1.6-4.8 0-3.1 1.5-4.9 1.5-1.9 4.1-1.9 2.4 0 3.8 1.6 1.4 1.6 1.4 4.2v1.2h-8.8q0 2.3 1.1 3.5 1.1 1.2 3.1 1.2 2.1 0 4.1-0.9v1.7q-1 0.5-2 0.7-0.9 0.2-2.2 0.2zm-0.5-11.7q-1.6 0-2.5 1-0.9 1-1.1 2.8h6.8q0-1.9-0.9-2.8-0.8-1-2.3-1zm12.7 10q0.5 0 1 0 0.5-0.1 0.8-0.2v1.5q-0.4 0.2-1 0.3-0.6 0.1-1.1 0.1-3.7 0-3.7-4v-7.6h-1.8v-1l1.8-0.8 0.8-2.7h1.1v3h3.8v1.5h-3.8v7.5q0 1.2 0.6 1.8 0.5 0.6 1.5 0.6zm4.2-11.4h2v8.3q0 1.6 0.7 2.3 0.7 0.8 2.2 0.8 2 0 2.9-1.1 1-1.1 1-3.6v-6.7h1.9v12.8h-1.6l-0.3-1.7h-0.1q-0.6 0.9-1.6 1.4-1.1 0.6-2.4 0.6-2.4 0-3.6-1.2-1.1-1.1-1.1-3.5zm20.7-0.3q0.9 0 1.6 0.2l-0.3 1.8q-0.8-0.2-1.4-0.2-1.6 0-2.7 1.3-1.1 1.2-1.1 3.1v6.9h-1.9v-12.8h1.6l0.2 2.4h0.1q0.7-1.3 1.7-2 1-0.7 2.2-0.7zm-542.7 51.1h-1.4l-0.4-1.8h-0.1q-1 1.2-2 1.6-0.9 0.5-2.3 0.5-1.9 0-3-1-1.1-1-1.1-2.8 0-3.9 6.2-4.1l2.2-0.1v-0.8q0-1.5-0.7-2.2-0.6-0.7-2-0.7-1.6 0-3.7 1l-0.6-1.5q1-0.6 2.1-0.8 1.1-0.3 2.3-0.3 2.3 0 3.4 1 1.1 1 1.1 3.3zm-5.8-1.4q1.8 0 2.8-1 1-1 1-2.8v-1.2l-1.9 0.1q-2.3 0.1-3.3 0.7-1.1 0.7-1.1 2 0 1.1 0.7 1.6 0.6 0.6 1.8 0.6zm18.8 1.4l-0.3-1.8h-0.1q-1.3 2-4 2-2.5 0-3.9-1.7-1.4-1.8-1.4-4.9 0-3.2 1.4-5 1.4-1.7 3.9-1.7 2.6 0 4 1.9h0.2l-0.1-1-0.1-0.9v-5.2h2v18.3zm-4.2-1.4q2 0 2.9-1.1 0.9-1.1 0.9-3.5v-0.4q0-2.8-0.9-3.9-0.9-1.2-2.9-1.2-1.7 0-2.6 1.3-0.9 1.4-0.9 3.8 0 2.5 0.9 3.7 0.9 1.3 2.6 1.3zm11.8-11.5v12.9h-1.9v-12.9zm-2.1-3.5q0-0.6 0.3-0.9 0.3-0.4 0.8-0.4 0.5 0 0.8 0.4 0.4 0.3 0.4 0.9 0 0.7-0.4 1-0.3 0.3-0.8 0.3-0.5 0-0.8-0.3-0.3-0.3-0.3-1zm12.2 16.6q-1.3 0-2.3-0.5-1-0.4-1.7-1.4h-0.2q0.2 1.1 0.2 2.1v5.3h-2v-18.6h1.6l0.3 1.8h0.1q0.7-1.1 1.7-1.6 1-0.4 2.3-0.4 2.5 0 3.9 1.7 1.4 1.8 1.4 4.9 0 3.2-1.4 4.9-1.4 1.8-3.9 1.8zm-0.3-11.7q-2 0-2.8 1.1-0.9 1.1-0.9 3.5v0.4q0 2.7 0.9 3.9 0.9 1.2 2.9 1.2 1.6 0 2.6-1.4 0.9-1.3 0.9-3.7 0-2.4-0.9-3.7-1-1.3-2.7-1.3zm11-1.4v12.9h-2v-12.9zm-2.1-3.5q0-0.6 0.3-0.9 0.4-0.4 0.9-0.4 0.4 0 0.8 0.4 0.3 0.3 0.3 0.9 0 0.7-0.3 1-0.4 0.3-0.8 0.3-0.5 0-0.9-0.3-0.3-0.3-0.3-1zm14.5 12.8q0 1.8-1.3 2.8-1.3 1-3.8 1-2.5 0-3.9-0.8v-1.8q0.9 0.4 1.9 0.7 1.1 0.3 2.1 0.3 1.5 0 2.3-0.5 0.9-0.5 0.9-1.5 0-0.7-0.7-1.3-0.6-0.5-2.5-1.2-1.8-0.7-2.6-1.2-0.7-0.5-1.1-1.1-0.4-0.7-0.4-1.5 0-1.6 1.3-2.5 1.3-0.9 3.5-0.9 2.1 0 4.1 0.8l-0.7 1.6q-2-0.8-3.5-0.8-1.4 0-2.1 0.4-0.7 0.5-0.7 1.2 0 0.5 0.2 0.9 0.3 0.4 0.9 0.7 0.6 0.3 2.2 1 2.3 0.8 3.1 1.6 0.8 0.9 0.8 2.1zm8.3 3.8q-2.8 0-4.3-1.7-1.5-1.7-1.5-4.9 0-3.2 1.5-5 1.6-1.7 4.5-1.7 0.9 0 1.8 0.2 0.9 0.2 1.5 0.4l-0.6 1.7q-0.7-0.3-1.4-0.4-0.8-0.2-1.4-0.2-3.9 0-3.9 5 0 2.4 0.9 3.6 1 1.3 2.9 1.3 1.6 0 3.3-0.7v1.7q-1.3 0.7-3.3 0.7zm8.3-13.1v12.9h-2v-12.9zm-2.1-3.5q0-0.6 0.3-0.9 0.4-0.4 0.9-0.4 0.4 0 0.8 0.4 0.3 0.3 0.3 0.9 0 0.7-0.3 1-0.4 0.3-0.8 0.3-0.5 0-0.9-0.3-0.3-0.3-0.3-1zm17 16.4h-2v-8.4q0-1.5-0.7-2.3-0.7-0.8-2.2-0.8-2 0-3 1.1-0.9 1.1-0.9 3.6v6.8h-2v-12.9h1.6l0.3 1.8h0.1q0.6-1 1.7-1.5 1.1-0.5 2.4-0.5 2.3 0 3.5 1.1 1.2 1.1 1.2 3.6zm10-12.9h4.5v1.3l-2.4 0.2q0.3 0.5 0.6 1.1 0.3 0.7 0.3 1.5 0 1.9-1.3 3-1.3 1.1-3.6 1.1-0.5 0-1.1 0-1.2 0.6-1.2 1.6 0 0.5 0.4 0.8 0.5 0.2 1.5 0.2h2.3q2.1 0 3.2 0.9 1.1 0.9 1.1 2.6 0 2.1-1.7 3.2-1.7 1.1-5 1.1-2.5 0-3.9-0.9-1.3-0.9-1.3-2.6 0-1.2 0.7-2.1 0.8-0.8 2.1-1.1-0.5-0.3-0.8-0.7-0.3-0.5-0.3-1.1 0-0.7 0.3-1.2 0.4-0.6 1.2-1.1-1-0.4-1.6-1.4-0.6-0.9-0.6-2.2 0-2.1 1.2-3.3 1.3-1.1 3.6-1.1 1 0 1.8 0.2zm-5.8 15q0 1.1 0.9 1.6 0.9 0.6 2.5 0.6 2.5 0 3.7-0.8 1.2-0.7 1.2-2 0-1-0.7-1.4-0.6-0.4-2.4-0.4h-2.4q-1.3 0-2 0.6-0.8 0.6-0.8 1.8zm1.1-10.9q0 1.4 0.8 2.1 0.7 0.7 2.1 0.7 2.8 0 2.8-2.8 0-2.9-2.9-2.9-1.3 0-2.1 0.8-0.7 0.7-0.7 2.1zm35.2 9q-2.8 0-4.5-1.7-1.6-1.8-1.6-4.8 0-3.1 1.5-5 1.5-1.8 4.1-1.8 2.4 0 3.8 1.6 1.4 1.6 1.4 4.2v1.2h-8.8q0.1 2.3 1.1 3.4 1.1 1.2 3.1 1.2 2.1 0 4.1-0.9v1.8q-1 0.4-2 0.6-0.9 0.2-2.2 0.2zm-0.5-11.7q-1.5 0-2.5 1-0.9 1-1.1 2.8h6.8q0-1.8-0.9-2.8-0.8-1-2.3-1zm10.5-6.8v18.3h-1.9v-18.3zm6 5.4v12.9h-1.9v-12.9zm-2.1-3.5q0-0.6 0.3-0.9 0.3-0.3 0.8-0.3 0.5 0 0.8 0.3 0.4 0.3 0.4 0.9 0 0.7-0.4 1-0.3 0.4-0.8 0.4-0.5 0-0.8-0.4-0.3-0.3-0.3-1zm10.4 15q0.5 0 1-0.1 0.4 0 0.7-0.1v1.5q-0.3 0.1-0.9 0.2-0.6 0.1-1.1 0.1-3.7 0-3.7-3.9v-7.7h-1.9v-0.9l1.9-0.8 0.8-2.7h1.1v2.9h3.7v1.5h-3.7v7.6q0 1.2 0.6 1.8 0.5 0.6 1.5 0.6zm4 0.1q0-0.8 0.4-1.2 0.3-0.4 1-0.4 0.7 0 1 0.4 0.4 0.4 0.4 1.2 0 0.8-0.4 1.2-0.3 0.4-1 0.4-0.6 0-1-0.3-0.4-0.4-0.4-1.3zm38.6-7.5q0 4.3-2.3 6.5-2.3 2.3-6.6 2.3h-4.8v-17.2h5.3q4 0 6.2 2.3 2.2 2.2 2.2 6.1zm-2.1 0.1q0-3.3-1.7-5-1.7-1.7-5-1.7h-2.9v13.7h2.5q3.5 0 5.3-1.8 1.8-1.8 1.8-5.2zm16.7 2.2q0 3.2-1.5 5-1.6 1.7-4.4 1.7-1.7 0-3.1-0.8-1.3-0.8-2-2.3-0.8-1.5-0.8-3.6 0-3.1 1.6-4.8 1.6-1.8 4.4-1.8 2.7 0 4.2 1.8 1.6 1.8 1.6 4.8zm-9.8 0q0 2.5 1 3.8 1 1.3 2.9 1.3 1.9 0 2.9-1.3 1-1.3 1-3.8 0-2.4-1-3.7-1-1.3-2.9-1.3-1.9 0-2.9 1.3-1 1.3-1 3.7zm24 6.5h-2v-8.3q0-1.6-0.7-2.4-0.7-0.8-2.2-0.8-2 0-3 1.1-0.9 1.1-0.9 3.6v6.8h-2v-12.9h1.6l0.3 1.8h0.1q0.6-1 1.7-1.5 1.1-0.5 2.4-0.5 2.3 0 3.5 1.1 1.2 1.1 1.2 3.6zm9.4 0.2q-2.8 0-4.5-1.7-1.6-1.7-1.6-4.8 0-3.1 1.5-5 1.5-1.8 4.1-1.8 2.4 0 3.8 1.6 1.4 1.6 1.4 4.2v1.2h-8.8q0 2.3 1.1 3.5 1.1 1.1 3.1 1.1 2 0 4.1-0.8v1.7q-1.1 0.4-2 0.6-0.9 0.2-2.2 0.2zm-0.5-11.7q-1.6 0-2.5 1.1-0.9 1-1.1 2.7h6.7q0-1.8-0.8-2.8-0.8-1-2.3-1zm13.7 11.7q-2.8 0-4.4-1.7-1.5-1.7-1.5-4.8 0-3.3 1.6-5 1.5-1.8 4.4-1.8 0.9 0 1.9 0.2 0.9 0.2 1.4 0.5l-0.6 1.6q-0.6-0.2-1.4-0.4-0.8-0.2-1.3-0.2-4 0-4 5 0 2.4 1 3.7 0.9 1.2 2.8 1.2 1.6 0 3.3-0.7v1.8q-1.3 0.6-3.2 0.6zm24.1-13h2v8.3q0 1.6 0.7 2.3 0.7 0.8 2.2 0.8 2 0 3-1.1 0.9-1.1 0.9-3.6v-6.7h1.9v12.8h-1.6l-0.2-1.7h-0.1q-0.6 0.9-1.7 1.4-1.1 0.5-2.4 0.5-2.4 0-3.5-1.1-1.2-1.1-1.2-3.5zm16.8-5.4v18.2h-1.9v-18.2zm8.2 16.8q0.6 0 1 0 0.5-0.1 0.8-0.2v1.5q-0.3 0.1-0.9 0.2-0.6 0.1-1.1 0.1-3.8 0-3.8-3.9v-7.6h-1.8v-1l1.8-0.8 0.9-2.7h1.1v3h3.7v1.5h-3.7v7.5q0 1.2 0.5 1.8 0.6 0.6 1.5 0.6zm10.2-11.7q0.9 0 1.6 0.2l-0.3 1.8q-0.8-0.2-1.4-0.2-1.6 0-2.7 1.3-1.1 1.2-1.1 3.1v6.9h-1.9v-12.8h1.6l0.2 2.3h0.1q0.7-1.2 1.7-1.9 1-0.7 2.2-0.7zm5.9 0.3v12.8h-1.9v-12.8zm-2.1-3.5q0-0.7 0.3-1 0.3-0.3 0.8-0.3 0.5 0 0.8 0.3 0.4 0.3 0.4 1 0 0.6-0.4 1-0.3 0.3-0.8 0.3-0.5 0-0.8-0.3-0.3-0.4-0.3-1zm11.3 16.5q-2.8 0-4.3-1.7-1.5-1.7-1.5-4.8 0-3.3 1.5-5 1.6-1.8 4.5-1.8 0.9 0 1.8 0.2 0.9 0.2 1.5 0.5l-0.6 1.6q-0.7-0.2-1.4-0.4-0.8-0.2-1.4-0.2-3.9 0-3.9 5 0 2.4 0.9 3.7 1 1.2 2.9 1.2 1.6 0 3.3-0.7v1.8q-1.3 0.6-3.3 0.6zm8.3-13v12.8h-2v-12.8zm-2.1-3.5q0-0.7 0.3-1 0.4-0.3 0.9-0.3 0.4 0 0.8 0.3 0.3 0.3 0.3 1 0 0.6-0.3 1-0.4 0.3-0.8 0.3-0.5 0-0.9-0.3-0.3-0.4-0.3-1zm11.7 16.5q-2.9 0-4.5-1.7-1.7-1.7-1.7-4.8 0-3.1 1.5-5 1.6-1.8 4.2-1.8 2.4 0 3.8 1.6 1.4 1.6 1.4 4.2v1.2h-8.9q0.1 2.3 1.2 3.5 1.1 1.1 3 1.1 2.1 0 4.1-0.8v1.7q-1 0.4-1.9 0.6-0.9 0.2-2.2 0.2zm-0.6-11.7q-1.5 0-2.4 1.1-0.9 1-1.1 2.7h6.7q0-1.8-0.8-2.8-0.8-1-2.4-1zm16.9 8q0 1.8-1.3 2.8-1.4 0.9-3.8 0.9-2.6 0-4-0.8v-1.8q0.9 0.5 2 0.8 1.1 0.2 2.1 0.2 1.5 0 2.3-0.5 0.8-0.4 0.8-1.4 0-0.8-0.6-1.3-0.7-0.6-2.6-1.3-1.8-0.7-2.5-1.1-0.8-0.5-1.2-1.2-0.3-0.6-0.3-1.5 0-1.6 1.3-2.5 1.2-0.9 3.5-0.9 2 0 4 0.9l-0.7 1.5q-1.9-0.8-3.5-0.8-1.4 0-2.1 0.5-0.7 0.4-0.7 1.2 0 0.5 0.3 0.9 0.3 0.3 0.8 0.6 0.6 0.4 2.3 1 2.3 0.8 3.1 1.7 0.8 0.8 0.8 2.1zm26.6 3.7q-2.9 0-4.5-1.7-1.7-1.7-1.7-4.8 0-3.1 1.5-5 1.6-1.8 4.2-1.8 2.4 0 3.8 1.6 1.4 1.6 1.4 4.2v1.2h-8.9q0.1 2.3 1.2 3.5 1.1 1.1 3 1.1 2.1 0 4.1-0.8v1.7q-1 0.4-1.9 0.6-0.9 0.2-2.2 0.2zm-0.6-11.7q-1.5 0-2.4 1.1-1 1-1.1 2.7h6.7q0-1.8-0.8-2.8-0.8-1-2.4-1zm14.5-1.6q0.8 0 1.5 0.2l-0.3 1.8q-0.8-0.2-1.4-0.2-1.5 0-2.7 1.3-1.1 1.2-1.1 3.1v6.9h-1.9v-12.8h1.6l0.2 2.3h0.1q0.7-1.2 1.7-1.9 1-0.7 2.3-0.7zm12.8 13.1h-1.5l-0.4-1.8h-0.1q-0.9 1.2-1.9 1.6-0.9 0.4-2.4 0.4-1.9 0-3-1-1.1-0.9-1.1-2.8 0-3.8 6.3-4l2.2-0.1v-0.8q0-1.5-0.7-2.2-0.6-0.8-2.1-0.8-1.6 0-3.6 1l-0.6-1.5q0.9-0.5 2.1-0.8 1.1-0.3 2.2-0.3 2.3 0 3.4 1.1 1.2 1 1.2 3.2zm-5.9-1.3q1.8 0 2.9-1 1-1 1-2.8v-1.2l-1.9 0.1q-2.4 0.1-3.4 0.7-1 0.7-1 2 0 1.1 0.6 1.6 0.7 0.6 1.8 0.6zm14 0q0.5 0 1-0.1 0.5-0.1 0.8-0.2v1.5q-0.4 0.2-1 0.3-0.6 0.1-1.1 0.1-3.7 0-3.7-4v-7.6h-1.8v-0.9l1.8-0.8 0.8-2.8h1.1v3h3.8v1.5h-3.8v7.6q0 1.1 0.6 1.7 0.5 0.7 1.5 0.7zm26.5 0q0.5 0 1-0.1 0.4-0.1 0.7-0.2v1.5q-0.3 0.2-0.9 0.3-0.6 0.1-1.1 0.1-3.8 0-3.8-4v-7.6h-1.8v-0.9l1.8-0.8 0.9-2.8h1.1v3h3.7v1.5h-3.7v7.6q0 1.1 0.5 1.7 0.6 0.7 1.6 0.7zm15.4-5.1q0 3.1-1.6 4.9-1.6 1.8-4.4 1.8-1.7 0-3-0.8-1.4-0.9-2.1-2.4-0.7-1.5-0.7-3.5 0-3.1 1.5-4.9 1.6-1.7 4.4-1.7 2.7 0 4.3 1.7 1.6 1.8 1.6 4.9zm-9.8 0q0 2.5 1 3.7 0.9 1.3 2.9 1.3 1.9 0 2.9-1.2 0.9-1.3 0.9-3.8 0-2.5-0.9-3.7-1-1.3-3-1.3-1.9 0-2.8 1.3-1 1.2-1 3.7zm19-6.6q0.9 0 1.6 0.1l-0.3 1.8q-0.8-0.2-1.4-0.2-1.6 0-2.7 1.3-1.1 1.3-1.1 3.1v6.9h-1.9v-12.8h1.6l0.2 2.4h0.1q0.7-1.3 1.7-2 1-0.6 2.2-0.6zm8.1 11.7q0.5 0 1-0.1 0.5-0.1 0.8-0.2v1.5q-0.3 0.2-1 0.3-0.6 0.1-1.1 0.1-3.7 0-3.7-4v-7.6h-1.8v-0.9l1.8-0.8 0.8-2.8h1.2v3h3.7v1.5h-3.7v7.6q0 1.1 0.5 1.7 0.6 0.7 1.5 0.7zm15.4-5.1q0 3.1-1.6 4.9-1.5 1.8-4.3 1.8-1.7 0-3.1-0.8-1.3-0.9-2-2.4-0.8-1.5-0.8-3.5 0-3.1 1.6-4.9 1.6-1.7 4.4-1.7 2.7 0 4.2 1.7 1.6 1.8 1.6 4.9zm-9.8 0q0 2.5 1 3.7 1 1.3 2.9 1.3 1.9 0 2.9-1.2 1-1.3 1-3.8 0-2.5-1-3.7-1-1.3-2.9-1.3-1.9 0-2.9 1.3-1 1.2-1 3.7zm19.1-6.6q0.9 0 1.5 0.1l-0.2 1.8q-0.8-0.2-1.4-0.2-1.6 0-2.7 1.3-1.1 1.3-1.1 3.1v6.9h-2v-12.8h1.6l0.3 2.4h0.1q0.7-1.3 1.7-2 1-0.6 2.2-0.6zm3.8 10.2h2.2l0.2 0.3q-0.4 1.2-0.9 2.7-0.6 1.6-1.2 2.9h-1.5q0.3-1.2 0.7-3 0.4-1.8 0.5-2.9zm25.9-10v12.8h-1.9v-12.8zm-2.1-3.5q0-0.7 0.3-1 0.3-0.3 0.8-0.3 0.5 0 0.8 0.3 0.4 0.4 0.4 1 0 0.7-0.4 1-0.3 0.3-0.8 0.3-0.5 0-0.8-0.3-0.3-0.3-0.3-1zm15.2 16.3l-0.2-1.7h-0.1q-1.4 2-4.1 2-2.5 0-3.9-1.8-1.4-1.7-1.4-4.9 0-3.1 1.4-4.9 1.4-1.7 3.9-1.7 2.6 0 4 1.9h0.2l-0.1-1v-0.9-5.2h1.9v18.2zm-4.1-1.4q1.9 0 2.8-1 0.9-1.1 0.9-3.5v-0.5q0-2.7-0.9-3.8-0.9-1.2-2.9-1.2-1.7 0-2.6 1.3-0.9 1.3-0.9 3.8 0 2.4 0.9 3.7 0.9 1.2 2.7 1.2zm-537.9 36.9q0 1.8-1.3 2.8-1.4 1-3.8 1-2.5 0-4-0.8v-1.8q1 0.4 2 0.7 1.1 0.3 2.1 0.3 1.5 0 2.3-0.5 0.8-0.5 0.8-1.5 0-0.8-0.6-1.3-0.7-0.5-2.6-1.3-1.8-0.6-2.5-1.1-0.8-0.5-1.1-1.1-0.4-0.7-0.4-1.6 0-1.5 1.3-2.4 1.2-0.9 3.5-0.9 2 0 4 0.8l-0.7 1.6q-1.9-0.8-3.5-0.8-1.4 0-2.1 0.4-0.7 0.4-0.7 1.2 0 0.5 0.3 0.9 0.3 0.4 0.9 0.7 0.5 0.3 2.2 0.9 2.3 0.9 3.1 1.7 0.8 0.9 0.8 2.1zm14.2-2.9q0 3.1-1.5 4.9-1.6 1.8-4.4 1.8-1.7 0-3.1-0.8-1.3-0.9-2-2.4-0.8-1.5-0.8-3.5 0-3.1 1.6-4.9 1.6-1.7 4.4-1.7 2.7 0 4.3 1.7 1.5 1.8 1.5 4.9zm-9.7 0q0 2.5 0.9 3.7 1 1.3 2.9 1.3 1.9 0 2.9-1.2 1-1.3 1-3.8 0-2.5-1-3.7-1-1.3-2.9-1.3-1.9 0-2.9 1.3-0.9 1.2-0.9 3.7zm22.2 6.4l-0.3-1.7h-0.1q-1.4 2-4 2-2.6 0-4-1.8-1.4-1.7-1.4-4.9 0-3.1 1.4-4.9 1.5-1.7 4-1.7 2.6 0 4 1.9h0.1l-0.1-1v-0.9-5.2h1.9v18.2zm-4.1-1.4q2 0 2.9-1 0.9-1.1 0.9-3.5v-0.5q0-2.7-0.9-3.8-0.9-1.2-2.9-1.2-1.7 0-2.7 1.3-0.9 1.3-0.9 3.8 0 2.4 0.9 3.7 0.9 1.2 2.7 1.2zm19.2 1.4h-1.5l-0.3-1.8h-0.1q-1 1.2-2 1.6-0.9 0.5-2.3 0.5-1.9 0-3-1-1.1-1-1.1-2.8 0-3.9 6.2-4.1l2.2-0.1v-0.8q0-1.5-0.7-2.2-0.6-0.7-2-0.7-1.7 0-3.7 1l-0.6-1.5q1-0.5 2.1-0.8 1.1-0.3 2.3-0.3 2.3 0 3.4 1 1.1 1 1.1 3.3zm-5.9-1.4q1.9 0 2.9-1 1-1 1-2.8v-1.2l-1.9 0.1q-2.3 0.1-3.4 0.8-1 0.6-1 1.9 0 1.1 0.7 1.6 0.6 0.6 1.7 0.6zm11.8-16.9v18.3h-1.9v-18.3zm9.5 18.5q-2.8 0-4.5-1.7-1.6-1.8-1.6-4.9 0-3.1 1.5-4.9 1.6-1.8 4.1-1.8 2.5 0 3.9 1.6 1.4 1.6 1.4 4.2v1.2h-8.9q0.1 2.3 1.2 3.4 1 1.2 3 1.2 2.1 0 4.1-0.9v1.8q-1 0.4-1.9 0.6-1 0.2-2.3 0.2zm-0.5-11.7q-1.5 0-2.5 1-0.9 1-1 2.8h6.7q0-1.8-0.8-2.8-0.9-1-2.4-1zm16.9 8q0 1.8-1.4 2.7-1.3 1-3.7 1-2.6 0-4-0.8v-1.8q0.9 0.5 2 0.7 1 0.3 2 0.3 1.6 0 2.4-0.5 0.8-0.5 0.8-1.5 0-0.7-0.7-1.3-0.6-0.5-2.5-1.2-1.8-0.7-2.6-1.2-0.7-0.5-1.1-1.1-0.3-0.6-0.3-1.5 0-1.6 1.2-2.5 1.3-0.9 3.5-0.9 2.1 0 4.1 0.8l-0.7 1.6q-1.9-0.8-3.5-0.8-1.4 0-2.1 0.5-0.7 0.4-0.7 1.1 0 0.6 0.3 0.9 0.2 0.4 0.8 0.7 0.6 0.3 2.3 1 2.3 0.8 3.1 1.6 0.8 0.9 0.8 2.2zm13.5 2.1q0.5 0 1-0.1 0.5-0.1 0.8-0.1v1.4q-0.3 0.2-1 0.3-0.6 0.1-1.1 0.1-3.7 0-3.7-3.9v-7.7h-1.8v-0.9l1.8-0.8 0.8-2.8h1.2v3h3.7v1.5h-3.7v7.6q0 1.2 0.5 1.8 0.6 0.6 1.5 0.6zm4.2-11.5h2v8.4q0 1.5 0.7 2.3 0.7 0.8 2.2 0.8 2 0 3-1.1 0.9-1.1 0.9-3.6v-6.8h1.9v12.9h-1.6l-0.2-1.8h-0.1q-0.6 1-1.7 1.5-1.1 0.5-2.4 0.5-2.4 0-3.5-1.1-1.2-1.1-1.2-3.6zm20.7-0.2q0.9 0 1.6 0.1l-0.3 1.8q-0.8-0.1-1.4-0.1-1.6 0-2.7 1.2-1.1 1.3-1.1 3.2v6.9h-1.9v-12.9h1.6l0.2 2.4h0.1q0.7-1.3 1.7-1.9 1-0.7 2.2-0.7zm9.9 13.3q-1.2 0-2.3-0.5-1-0.4-1.7-1.4h-0.1q0.1 1.1 0.1 2.1v5.3h-1.9v-18.6h1.5l0.3 1.8h0.1q0.8-1.1 1.8-1.5 1-0.5 2.2-0.5 2.6 0 4 1.7 1.4 1.8 1.4 4.9 0 3.2-1.4 5-1.5 1.7-4 1.7zm-0.2-11.7q-2 0-2.9 1.1-0.9 1.1-0.9 3.5v0.4q0 2.7 0.9 3.9 0.9 1.2 2.9 1.2 1.7 0 2.6-1.4 1-1.3 1-3.7 0-2.4-1-3.7-0.9-1.3-2.6-1.3zm10.9-1.4v12.9h-1.9v-12.9zm-2.1-3.5q0-0.6 0.3-0.9 0.3-0.3 0.8-0.3 0.5 0 0.8 0.3 0.4 0.3 0.4 0.9 0 0.7-0.4 1-0.3 0.3-0.8 0.3-0.5 0-0.8-0.3-0.3-0.3-0.3-1zm14.5 12.9q0 1.8-1.4 2.7-1.3 1-3.7 1-2.6 0-4-0.8v-1.8q0.9 0.5 2 0.7 1.1 0.3 2 0.3 1.6 0 2.4-0.5 0.8-0.5 0.8-1.5 0-0.7-0.6-1.2-0.7-0.6-2.6-1.3-1.8-0.7-2.5-1.2-0.8-0.5-1.2-1.1-0.3-0.6-0.3-1.5 0-1.6 1.3-2.5 1.2-0.9 3.5-0.9 2 0 4 0.8l-0.7 1.6q-1.9-0.8-3.5-0.8-1.4 0-2.1 0.5-0.7 0.4-0.7 1.1 0 0.6 0.3 0.9 0.3 0.4 0.8 0.7 0.6 0.3 2.3 1 2.3 0.8 3.1 1.6 0.8 0.9 0.8 2.2zm15.2-9.6q0.9 0 1.6 0.1l-0.3 1.8q-0.8-0.1-1.4-0.1-1.6 0-2.7 1.2-1.1 1.3-1.1 3.2v6.9h-1.9v-12.9h1.6l0.2 2.4h0.1q0.7-1.3 1.7-1.9 1-0.7 2.2-0.7zm3.8 0.2h2v8.4q0 1.5 0.7 2.3 0.7 0.8 2.3 0.8 2 0 2.9-1.1 0.9-1.1 0.9-3.6v-6.8h2v12.9h-1.6l-0.3-1.8h-0.1q-0.6 1-1.7 1.5-1 0.5-2.4 0.5-2.3 0-3.5-1.1-1.2-1.1-1.2-3.6zm19.1 11.5q0.5 0 1-0.1 0.4-0.1 0.7-0.1v1.5q-0.3 0.1-0.9 0.2-0.6 0.1-1.1 0.1-3.8 0-3.8-3.9v-7.7h-1.8v-0.9l1.8-0.8 0.9-2.7h1.1v2.9h3.7v1.5h-3.7v7.6q0 1.2 0.5 1.8 0.6 0.6 1.6 0.6zm10.1-11.7q0.9 0 1.6 0.1l-0.3 1.8q-0.8-0.1-1.4-0.1-1.6 0-2.7 1.2-1.1 1.3-1.1 3.2v6.9h-1.9v-12.9h1.6l0.2 2.4h0.1q0.7-1.2 1.7-1.9 1-0.7 2.2-0.7zm3.8 0.2h2v8.4q0 1.5 0.7 2.3 0.7 0.8 2.3 0.8 2 0 2.9-1.1 0.9-1.1 0.9-3.6v-6.8h2v12.9h-1.6l-0.3-1.8h-0.1q-0.6 1-1.7 1.5-1 0.5-2.4 0.5-2.3 0-3.5-1.1-1.2-1.1-1.2-3.6zm33.2 12.9h-1.9v-8.4q0-1.5-0.7-2.3-0.6-0.8-2-0.8-1.8 0-2.7 1.1-0.9 1-0.9 3.2v7.2h-1.9v-8.4q0-1.5-0.7-2.3-0.6-0.8-2-0.8-1.8 0-2.7 1.1-0.8 1.1-0.8 3.6v6.8h-2v-12.9h1.6l0.3 1.8h0.1q0.6-1 1.5-1.5 1.1-0.5 2.3-0.5 3 0 3.9 2.2h0.1q0.6-1 1.7-1.6 1.1-0.6 2.5-0.6 2.2 0 3.2 1.1 1.1 1.1 1.1 3.6zm15.7 0.2q-2.9 0-4.5-1.7-1.6-1.7-1.6-4.8 0-3.1 1.5-5 1.5-1.8 4.1-1.8 2.4 0 3.8 1.6 1.4 1.6 1.4 4.2v1.2h-8.8q0 2.3 1.1 3.5 1.1 1.1 3.1 1.1 2 0 4.1-0.8v1.7q-1.1 0.4-2 0.6-0.9 0.2-2.2 0.2zm-0.5-11.7q-1.6 0-2.5 1.1-0.9 1-1.1 2.7h6.7q0-1.8-0.8-2.8-0.8-1-2.3-1zm14.6-1.3h4.4v1.2l-2.3 0.3q0.3 0.4 0.6 1 0.2 0.7 0.2 1.5 0 1.9-1.3 3-1.3 1.2-3.5 1.2-0.6 0-1.1-0.1-1.2 0.6-1.2 1.6 0 0.6 0.4 0.8 0.4 0.3 1.5 0.3h2.3q2 0 3.2 0.8 1.1 0.9 1.1 2.6 0 2.1-1.7 3.2-1.7 1.2-5 1.2-2.5 0-3.9-1-1.4-0.9-1.4-2.6 0-1.2 0.8-2.1 0.7-0.8 2.1-1.1-0.5-0.2-0.8-0.7-0.4-0.5-0.4-1.1 0-0.7 0.4-1.2 0.4-0.6 1.2-1-1-0.5-1.6-1.4-0.7-1-0.7-2.3 0-2.1 1.3-3.2 1.3-1.2 3.6-1.2 1 0 1.8 0.3zm-5.8 15q0 1 0.9 1.5 0.9 0.6 2.5 0.6 2.4 0 3.6-0.8 1.2-0.7 1.2-1.9 0-1.1-0.6-1.5-0.7-0.4-2.5-0.4h-2.3q-1.3 0-2.1 0.6-0.7 0.7-0.7 1.9zm1.1-10.9q0 1.3 0.7 2 0.8 0.7 2.1 0.7 2.9 0 2.9-2.8 0-2.9-2.9-2.9-1.4 0-2.1 0.8-0.7 0.7-0.7 2.2zm17.2 8.9q-2.8 0-4.5-1.7-1.6-1.7-1.6-4.8 0-3.1 1.5-5 1.5-1.8 4.1-1.8 2.4 0 3.8 1.6 1.4 1.6 1.4 4.2v1.2h-8.8q0 2.3 1.1 3.5 1.1 1.1 3.1 1.1 2.1 0 4.1-0.8v1.7q-1.1 0.4-2 0.6-0.9 0.2-2.2 0.2zm-0.5-11.7q-1.6 0-2.5 1.1-0.9 1-1.1 2.7h6.7q0-1.8-0.8-2.8-0.8-1-2.3-1zm12.7 10.1q0.5 0 1 0 0.5-0.1 0.8-0.2v1.5q-0.4 0.1-1 0.2-0.6 0.1-1.1 0.1-3.7 0-3.7-3.9v-7.6h-1.9v-1l1.9-0.8 0.8-2.7h1.1v3h3.8v1.5h-3.8v7.5q0 1.2 0.6 1.8 0.5 0.6 1.5 0.6zm4 0.2q0-0.8 0.4-1.2 0.4-0.4 1-0.4 0.7 0 1.1 0.4 0.4 0.4 0.4 1.2 0 0.7-0.4 1.1-0.4 0.4-1.1 0.4-0.6 0-1-0.3-0.4-0.4-0.4-1.2z"/><g style="display:none"><path class="g" d="m250.5 646.8h-111.5c-14 0-25.4-11.3-25.4-25.4 0-14 11.4-25.4 25.4-25.4h111.5c14 0 25.4 11.4 25.4 25.4 0 14.1-11.4 25.4-25.4 25.4z"/><path class="h" d="m144.8 629.3c5.5 0 8.2-2.7 8.2-6 0-7.1-11.3-4.6-11.3-8.2 0-1.2 1-2.2 3.7-2.2 1.7 0 3.6 0.5 5.4 1.5l1.4-3.4c-1.8-1.1-4.3-1.7-6.8-1.7-5.5 0-8.1 2.7-8.1 6 0 7.2 11.2 4.7 11.2 8.4 0 1.1-1 2-3.7 2-2.3 0-4.8-0.8-6.4-2l-1.5 3.4c1.7 1.3 4.8 2.2 7.9 2.2zm11.3-0.3h4.5v-19.4h-4.5zm22.2-4.3c-1.2 0.6-2.3 0.8-3.5 0.8-3.7 0-6.3-2.6-6.3-6.2 0-3.7 2.6-6.2 6.3-6.2 2 0 3.6 0.7 5 2.2l2.9-2.7c-1.9-2.2-4.7-3.3-8.1-3.3-6.2 0-10.7 4.2-10.7 10 0 5.9 4.5 10 10.6 10 2.8 0 5.7-0.8 7.9-2.4v-7.9h-4.1zm21.6-15.1v11.8l-9.7-11.8h-3.7v19.4h4.5v-11.7l9.6 11.7h3.7v-19.4zm25.5 19.8c5.5 0 8.8-3.2 8.8-8.9v-10.9h-4.5v10.7c0 3.7-1.5 5.2-4.3 5.2-2.7 0-4.3-1.5-4.3-5.2v-10.7h-4.5v10.9c0 5.7 3.3 8.9 8.8 8.9zm21.6-19.8h-8.4v19.4h4.5v-5.3h3.9c5.2 0 8.4-2.7 8.4-7 0-4.4-3.2-7.1-8.4-7.1zm-0.2 10.4h-3.7v-6.7h3.7c2.7 0 4.1 1.2 4.1 3.4 0 2.1-1.4 3.3-4.1 3.3z"/></g><g style="display:none"><path class="i" d="m447.5 646.8h-111.5c-14 0-25.4-11.3-25.4-25.4 0-14 11.4-25.4 25.4-25.4h111.5c14 0 25.4 11.4 25.4 25.4 0 14.1-11.4 25.4-25.4 25.4z"/><path class="j" d="m349.7 629h14.2v-3.7h-9.7v-15.7h-4.5zm25.8 0.3c6.1 0 10.6-4.2 10.6-10 0-5.8-4.5-10-10.6-10-6.1 0-10.6 4.2-10.6 10 0 5.8 4.5 10 10.6 10zm0-3.8c-3.4 0-6-2.5-6-6.2 0-3.7 2.6-6.2 6-6.2 3.5 0 6.1 2.5 6.1 6.2 0 3.7-2.6 6.2-6.1 6.2zm27.1-0.8c-1.1 0.6-2.3 0.8-3.5 0.8-3.7 0-6.3-2.6-6.3-6.2 0-3.7 2.6-6.2 6.4-6.2 1.9 0 3.6 0.7 5 2.2l2.9-2.7c-1.9-2.2-4.7-3.3-8.1-3.3-6.2 0-10.7 4.2-10.7 10 0 5.9 4.5 10 10.6 10 2.7 0 5.7-0.8 7.8-2.4v-7.9h-4.1zm8.3 4.3h4.5v-19.4h-4.5zm22.4-19.4v11.8l-9.6-11.8h-3.7v19.4h4.4v-11.7l9.7 11.7h3.6v-19.4z"/></g></g><g style="display:none"><path class="k" d="m1068.5 187.3h-90.3c-10.8 0-19.5-8.8-19.5-19.5 0-10.8 8.7-19.5 19.5-19.5h90.3c10.8 0 19.5 8.7 19.5 19.5 0 10.7-8.7 19.5-19.5 19.5z"/></g><path class="l" d="m1301.3 163.1q-1.9 0-2.9 1.2-1.1 1.2-1.1 3.4 0 1 0.3 1.9 0.2 0.8 0.7 1.4 0.5 0.6 1.2 0.9 0.7 0.4 1.7 0.4 0.6 0 1-0.1 0.5 0 0.7-0.1v-4.5h2.3v6q-0.5 0.2-1.6 0.4-1.1 0.3-2.6 0.3-1.4 0-2.5-0.5-1.1-0.4-1.9-1.3-0.8-0.8-1.2-2-0.5-1.2-0.5-2.8 0-1.6 0.5-2.8 0.5-1.2 1.3-2.1 0.9-0.8 2-1.3 1.1-0.4 2.4-0.4 0.9 0 1.5 0.1 0.7 0.1 1.2 0.3 0.5 0.1 0.8 0.3 0.4 0.2 0.5 0.2l-0.7 1.9q-0.6-0.3-1.4-0.5-0.8-0.3-1.7-0.3zm5.9 6.2q0-1.3 0.4-2.2 0.4-1 1-1.6 0.6-0.6 1.4-0.9 0.8-0.3 1.6-0.3 2 0 3.1 1.2 1.1 1.2 1.1 3.6 0 0.2 0 0.4 0 0.2 0 0.4h-6.3q0.1 1.2 0.8 1.8 0.7 0.6 2.1 0.6 0.8 0 1.4-0.1 0.7-0.2 1.1-0.3l0.3 1.8q-0.2 0.1-0.5 0.2-0.3 0.1-0.8 0.2-0.4 0-0.8 0.1-0.5 0-1 0-1.2 0-2.2-0.3-0.9-0.4-1.5-1.1-0.6-0.6-0.9-1.5-0.3-0.9-0.3-2zm2.3-1h4.1q0-0.4-0.1-0.8-0.2-0.5-0.4-0.8-0.2-0.3-0.6-0.4-0.4-0.2-0.8-0.2-0.6 0-0.9 0.2-0.4 0.2-0.7 0.5-0.2 0.3-0.4 0.7-0.1 0.4-0.2 0.8zm8.5 1.9v-8.2l2.2-0.4v2.9h3.4v1.8h-3.4v3.9q0 1.1 0.4 1.6 0.3 0.5 1.2 0.5 0.6 0 1.1-0.1 0.4-0.1 0.7-0.2l0.4 1.7q-0.4 0.2-1 0.4-0.6 0.1-1.5 0.1-1 0-1.7-0.3-0.7-0.2-1.1-0.7-0.4-0.6-0.5-1.3-0.2-0.7-0.2-1.7zm15.1 2.1q1.3 0 1.8-0.4 0.6-0.4 0.6-1.2 0-0.5-0.2-0.8-0.2-0.3-0.6-0.6-0.3-0.2-0.8-0.5-0.5-0.2-1.2-0.4-0.6-0.3-1.2-0.5-0.6-0.3-1.1-0.7-0.5-0.5-0.8-1-0.2-0.6-0.2-1.4 0-1.7 1.1-2.7 1.2-1 3.3-1 1.1 0 2.1 0.3 0.9 0.2 1.4 0.5l-0.7 1.9q-0.6-0.3-1.4-0.5-0.7-0.2-1.5-0.2-0.9 0-1.4 0.4-0.5 0.4-0.5 1 0 0.5 0.1 0.8 0.2 0.3 0.5 0.5 0.3 0.2 0.8 0.4 0.4 0.2 0.9 0.4 0.9 0.3 1.6 0.7 0.7 0.3 1.2 0.8 0.5 0.4 0.7 1.1 0.3 0.6 0.3 1.5 0 1.7-1.2 2.6-1.2 1-3.6 1-0.8 0-1.4-0.1-0.6-0.1-1.2-0.3-0.4-0.1-0.8-0.3-0.4-0.1-0.6-0.3l0.7-1.8q0.5 0.2 1.3 0.5 0.8 0.3 2 0.3zm6.6-2.1v-8.2l2.2-0.4v2.9h3.3v1.8h-3.3v3.9q0 1.1 0.3 1.6 0.4 0.5 1.3 0.5 0.6 0 1-0.1 0.5-0.1 0.8-0.2l0.3 1.7q-0.4 0.2-1 0.4-0.6 0.1-1.4 0.1-1 0-1.7-0.3-0.7-0.2-1.1-0.7-0.4-0.6-0.6-1.3-0.1-0.7-0.1-1.7zm11 2.3q1 0 1.6-0.2v-2.4q-0.2 0-0.6-0.1-0.3-0.1-0.7-0.1-0.4 0-0.8 0.1-0.3 0.1-0.6 0.2-0.3 0.1-0.5 0.4-0.2 0.3-0.2 0.7 0 0.8 0.5 1.1 0.5 0.3 1.3 0.3zm-0.2-8.2q1.1 0 1.9 0.2 0.7 0.3 1.2 0.8 0.4 0.5 0.6 1.2 0.2 0.7 0.2 1.5v5.8q-0.5 0.1-1.6 0.3-1 0.1-2.3 0.1-0.8 0-1.5-0.2-0.7-0.1-1.2-0.5-0.5-0.4-0.8-0.9-0.3-0.6-0.3-1.5 0-0.8 0.3-1.4 0.3-0.5 0.9-0.9 0.5-0.3 1.2-0.5 0.8-0.1 1.5-0.1 0.4 0 0.8 0 0.4 0.1 0.9 0.2v-0.4q0-0.4-0.1-0.7-0.1-0.4-0.4-0.6-0.2-0.3-0.6-0.4-0.3-0.2-0.9-0.2-0.7 0-1.4 0.1-0.6 0.1-1 0.3l-0.3-1.8q0.4-0.2 1.2-0.3 0.8-0.1 1.7-0.1zm12.4 0.3l-0.4 1.9q-0.3-0.1-0.8-0.2-0.4-0.1-1.1-0.1-0.3 0-0.8 0.1-0.4 0-0.5 0.1v7.6h-2.2v-9.1q0.6-0.2 1.6-0.4 0.9-0.2 2.1-0.2 0.2 0 0.5 0 0.3 0 0.6 0.1 0.3 0 0.5 0.1 0.3 0.1 0.5 0.1zm1.4 5.6v-8.2l2.2-0.4v2.9h3.4v1.8h-3.4v3.9q0 1.1 0.4 1.6 0.3 0.5 1.2 0.5 0.6 0 1.1-0.1 0.4-0.1 0.7-0.2l0.4 1.7q-0.4 0.2-1 0.4-0.7 0.1-1.5 0.1-1 0-1.7-0.3-0.7-0.2-1.1-0.7-0.4-0.6-0.5-1.3-0.2-0.7-0.2-1.7zm7-0.9q0-1.3 0.4-2.2 0.4-1 1-1.6 0.6-0.6 1.4-0.9 0.8-0.3 1.6-0.3 2 0 3.1 1.2 1.1 1.2 1.1 3.6 0 0.2 0 0.4 0 0.2 0 0.4h-6.3q0.1 1.2 0.8 1.8 0.7 0.6 2.1 0.6 0.8 0 1.4-0.1 0.7-0.2 1.1-0.3l0.3 1.8q-0.2 0.1-0.5 0.2-0.3 0.1-0.8 0.2-0.4 0-0.8 0.1-0.5 0-1 0-1.2 0-2.2-0.3-0.9-0.4-1.5-1.1-0.6-0.6-0.9-1.5-0.3-0.9-0.3-2zm2.3-1h4.1q0-0.4-0.1-0.8-0.2-0.5-0.4-0.8-0.2-0.3-0.6-0.4-0.4-0.2-0.8-0.2-0.6 0-0.9 0.2-0.4 0.2-0.7 0.5-0.2 0.3-0.4 0.7-0.1 0.4-0.2 0.8zm10.3 0.9q0 1.5 0.7 2.3 0.7 0.8 1.9 0.8 0.6 0 0.9 0 0.4-0.1 0.7-0.1v-5.5q-0.3-0.2-0.8-0.3-0.5-0.2-1-0.2-1.2 0-1.8 0.8-0.6 0.8-0.6 2.2zm6.4-9.3v13.8q-0.7 0.2-1.7 0.4-1 0.1-2.1 0.1-1.1 0-2-0.3-0.9-0.4-1.5-1-0.6-0.6-1-1.6-0.3-0.9-0.3-2 0-1.2 0.3-2.1 0.3-0.9 0.8-1.5 0.5-0.7 1.3-1 0.8-0.4 1.8-0.4 0.7 0 1.2 0.2 0.6 0.1 1 0.3v-4.5z"/><path class="m" d="m758.5 164.4v-5h2.2v12.6h-2.2v-5.6h-5.5v5.6h-2.3v-12.6h2.3v5zm13.8 2.8q0 1.2-0.4 2.1-0.3 0.9-0.9 1.6-0.6 0.6-1.4 1-0.9 0.4-1.9 0.4-1 0-1.8-0.4-0.9-0.4-1.5-1-0.6-0.7-0.9-1.6-0.3-0.9-0.3-2.1 0-1.1 0.3-2 0.3-0.9 0.9-1.6 0.6-0.6 1.5-1 0.8-0.3 1.8-0.3 1 0 1.9 0.3 0.8 0.4 1.4 1 0.6 0.7 0.9 1.6 0.4 0.9 0.4 2zm-2.3 0q0-1.4-0.6-2.2-0.6-0.8-1.7-0.8-1.1 0-1.7 0.8-0.6 0.8-0.6 2.2 0 1.5 0.6 2.3 0.6 0.8 1.7 0.8 1.1 0 1.7-0.8 0.6-0.8 0.6-2.3zm10 4.8v-5q0-1.5-0.4-2.1-0.4-0.7-1.4-0.7-0.4 0-0.8 0-0.4 0.1-0.7 0.1v7.7h-2.2v-9.2q0.7-0.2 1.7-0.3 1-0.2 2.2-0.2 1 0 1.6 0.2 0.6 0.3 1 0.7 0.2-0.1 0.5-0.3 0.4-0.2 0.7-0.3 0.4-0.1 0.8-0.2 0.5-0.1 0.9-0.1 1.1 0 1.8 0.3 0.8 0.3 1.2 0.9 0.4 0.6 0.5 1.4 0.2 0.8 0.2 1.8v5.3h-2.2v-5q0-1.5-0.4-2.1-0.3-0.7-1.4-0.7-0.5 0-1 0.2-0.5 0.1-0.7 0.3 0.2 0.4 0.2 1 0.1 0.5 0.1 1v5.3zm9.7-4.7q0-1.3 0.4-2.2 0.4-1 1-1.6 0.6-0.6 1.4-0.9 0.8-0.3 1.7-0.3 1.9 0 3 1.2 1.1 1.2 1.1 3.6 0 0.2 0 0.4 0 0.2 0 0.4h-6.3q0.1 1.2 0.8 1.8 0.7 0.6 2.1 0.6 0.8 0 1.5-0.1 0.6-0.2 1-0.3l0.3 1.8q-0.2 0.1-0.5 0.2-0.3 0.1-0.7 0.2-0.4 0-0.9 0.1-0.5 0-1 0-1.2 0-2.1-0.3-1-0.4-1.6-1.1-0.6-0.6-0.9-1.5-0.3-0.9-0.3-2zm2.3-1h4.1q0-0.4-0.1-0.8-0.1-0.5-0.4-0.8-0.2-0.3-0.6-0.4-0.3-0.2-0.8-0.2-0.5 0-0.9 0.2-0.4 0.2-0.7 0.5-0.2 0.3-0.4 0.7-0.1 0.4-0.2 0.8z"/><path class="m" d="m864.9 174h-2.5q-0.2-0.7-0.5-1.5-0.3-0.7-0.5-1.5h-5.3q-0.3 0.8-0.5 1.5-0.3 0.8-0.6 1.5h-2.3q0.7-2 1.3-3.7 0.6-1.7 1.2-3.3 0.7-1.5 1.3-2.9 0.6-1.4 1.2-2.7h2.2q0.6 1.3 1.2 2.7 0.6 1.4 1.2 2.9 0.6 1.6 1.3 3.3 0.6 1.7 1.3 3.7zm-6.2-10.2q-0.4 1-0.9 2.4-0.6 1.4-1.1 3h4.1q-0.6-1.6-1.1-3-0.6-1.4-1-2.4zm14 5.4q0-1.4-0.6-2.2-0.5-0.8-1.7-0.8-0.5 0-1 0.1-0.5 0.2-0.8 0.4v5.5q0.2 0 0.6 0.1 0.4 0 0.9 0 1.2 0 1.9-0.8 0.7-0.8 0.7-2.3zm2.3 0.1q0 1.1-0.4 2-0.3 0.9-0.9 1.6-0.7 0.6-1.6 1-0.8 0.3-2 0.3-1.1 0-2.1-0.1-0.9-0.2-1.6-0.4v-13.4l2.2-0.4v4.9q0.4-0.2 0.9-0.3 0.6-0.2 1.3-0.2 1 0 1.7 0.4 0.8 0.3 1.4 1 0.5 0.6 0.8 1.5 0.3 0.9 0.3 2.1zm10.8-0.1q0 1.2-0.3 2.1-0.3 0.9-0.9 1.6-0.6 0.6-1.5 1-0.8 0.4-1.8 0.4-1 0-1.9-0.4-0.8-0.4-1.4-1-0.6-0.7-1-1.6-0.3-0.9-0.3-2.1 0-1.1 0.3-2 0.4-0.9 1-1.6 0.6-0.6 1.4-1 0.9-0.3 1.9-0.3 1 0 1.8 0.3 0.9 0.4 1.5 1 0.6 0.7 0.9 1.6 0.3 0.9 0.3 2zm-2.2 0q0-1.4-0.6-2.2-0.6-0.8-1.7-0.8-1.1 0-1.7 0.8-0.6 0.8-0.6 2.2 0 1.5 0.6 2.3 0.6 0.8 1.7 0.8 1.1 0 1.7-0.8 0.6-0.8 0.6-2.3zm12.3-4.7v9.2q-0.6 0.2-1.6 0.4-1.1 0.1-2.3 0.1-1.1 0-1.9-0.3-0.8-0.3-1.2-0.9-0.5-0.6-0.7-1.4-0.2-0.8-0.2-1.8v-5.3h2.2v5q0 1.5 0.4 2.2 0.5 0.6 1.6 0.6 0.4 0 0.8 0 0.5-0.1 0.7-0.1v-7.7zm2.7 5.7v-8.2l2.2-0.4v2.9h3.4v1.8h-3.4v3.9q0 1.1 0.4 1.6 0.3 0.5 1.2 0.5 0.6 0 1-0.1 0.5-0.1 0.8-0.2l0.4 1.7q-0.4 0.2-1 0.4-0.7 0.1-1.5 0.1-1 0-1.7-0.3-0.7-0.2-1.1-0.7-0.4-0.6-0.5-1.3-0.2-0.7-0.2-1.7zm16.9 4.1q-1.3 0-2.2-0.4-0.9-0.4-1.6-1-0.6-0.7-0.9-1.6-0.2-0.9-0.2-2v-7.9h2.3v7.7q0 0.8 0.1 1.4 0.2 0.6 0.6 1 0.4 0.4 0.8 0.6 0.5 0.2 1.1 0.2 0.6 0 1.1-0.2 0.5-0.2 0.8-0.6 0.4-0.4 0.6-1 0.2-0.6 0.2-1.4v-7.7h2.3v7.9q0 1.1-0.3 2-0.3 0.9-0.9 1.6-0.6 0.6-1.6 1-0.9 0.4-2.2 0.4zm10.2-1.9q0.9 0 1.3-0.2 0.4-0.2 0.4-0.7 0-0.5-0.5-0.8-0.4-0.3-1.4-0.7-0.6-0.2-1.1-0.4-0.5-0.3-0.8-0.6-0.4-0.3-0.6-0.8-0.2-0.5-0.2-1.1 0-1.3 1-2.1 0.9-0.7 2.6-0.7 0.8 0 1.6 0.1 0.7 0.2 1.1 0.3l-0.4 1.8q-0.3-0.2-0.9-0.3-0.6-0.1-1.3-0.1-0.7 0-1.1 0.2-0.4 0.2-0.4 0.7 0 0.2 0 0.4 0.1 0.2 0.3 0.3 0.2 0.2 0.6 0.4 0.3 0.1 0.8 0.3 0.7 0.3 1.3 0.5 0.5 0.3 0.9 0.7 0.3 0.3 0.5 0.8 0.2 0.4 0.2 1.1 0 1.3-1 2-1 0.7-2.9 0.7-1.3 0-2-0.2-0.8-0.2-1.1-0.3l0.4-1.8q0.5 0.2 1.1 0.3 0.7 0.2 1.6 0.2z"/><path class="m" d="m995 170.3q1.3 0 1.8-0.4 0.6-0.4 0.6-1.2 0-0.5-0.2-0.8-0.2-0.3-0.5-0.6-0.4-0.2-0.9-0.5-0.5-0.2-1.2-0.4-0.6-0.3-1.2-0.5-0.6-0.3-1.1-0.7-0.5-0.5-0.7-1-0.3-0.6-0.3-1.4 0-1.7 1.2-2.7 1.1-1 3.2-1 1.2 0 2.1 0.3 0.9 0.2 1.4 0.5l-0.7 1.9q-0.6-0.3-1.3-0.5-0.8-0.2-1.6-0.2-0.9 0-1.4 0.4-0.5 0.4-0.5 1 0 0.5 0.1 0.8 0.2 0.3 0.5 0.5 0.4 0.2 0.8 0.4 0.4 0.2 0.9 0.4 0.9 0.3 1.6 0.7 0.7 0.3 1.2 0.8 0.5 0.4 0.7 1.1 0.3 0.6 0.3 1.5 0 1.7-1.2 2.6-1.2 1-3.6 1-0.7 0-1.4-0.1-0.6-0.1-1.1-0.3-0.5-0.1-0.9-0.3-0.4-0.1-0.6-0.3l0.7-1.8q0.5 0.2 1.3 0.5 0.9 0.3 2 0.3zm6.2-3q0-1.3 0.3-2.2 0.4-1 1-1.6 0.7-0.6 1.5-0.9 0.8-0.3 1.6-0.3 2 0 3 1.2 1.2 1.2 1.2 3.6 0 0.2-0.1 0.4 0 0.2 0 0.4h-6.3q0.1 1.2 0.8 1.8 0.8 0.6 2.1 0.6 0.8 0 1.5-0.1 0.7-0.2 1-0.3l0.3 1.8q-0.1 0.1-0.5 0.2-0.3 0.1-0.7 0.2-0.4 0-0.9 0.1-0.4 0-0.9 0-1.3 0-2.2-0.3-0.9-0.4-1.5-1.1-0.6-0.6-0.9-1.5-0.3-0.9-0.3-2zm2.3-1h4.1q0-0.4-0.2-0.8-0.1-0.5-0.4-0.8-0.2-0.3-0.6-0.4-0.3-0.2-0.8-0.2-0.5 0-0.9 0.2-0.4 0.2-0.6 0.5-0.3 0.3-0.4 0.7-0.2 0.4-0.2 0.8zm14.4-3.7l-0.4 1.9q-0.3-0.1-0.8-0.2-0.4-0.1-1.1-0.1-0.3 0-0.8 0.1-0.4 0-0.5 0.1v7.6h-2.2v-9.1q0.6-0.2 1.6-0.4 0.9-0.2 2.1-0.2 0.2 0 0.5 0 0.3 0 0.6 0.1 0.3 0 0.5 0.1 0.3 0.1 0.5 0.1zm6.2 9.4h-1.9q-0.9-1.9-1.9-4.3-0.9-2.4-1.7-5.2h2.3q0.2 0.8 0.5 1.7 0.2 0.9 0.5 1.9 0.3 0.9 0.6 1.7 0.4 0.9 0.6 1.6 0.3-0.7 0.6-1.6 0.3-0.8 0.6-1.7 0.3-1 0.6-1.9 0.3-0.9 0.5-1.7h2.3q-0.8 2.8-1.8 5.2-0.9 2.4-1.8 4.3zm7.4-9.5v9.5h-2.2v-9.5zm0.2-2.8q0 0.6-0.4 1-0.4 0.4-0.9 0.4-0.6 0-1-0.4-0.4-0.4-0.4-1 0-0.6 0.4-1 0.4-0.4 1-0.4 0.5 0 0.9 0.4 0.4 0.4 0.4 1zm2.1 7.6q0-1.1 0.3-2 0.3-0.9 0.9-1.6 0.7-0.7 1.5-1.1 0.9-0.3 2-0.3 1.3 0 2.5 0.4l-0.4 1.8q-0.4-0.1-0.9-0.2-0.5-0.1-1-0.1-1.3 0-2 0.8-0.7 0.8-0.7 2.3 0 1.4 0.7 2.2 0.6 0.8 2.1 0.8 0.6 0 1.1-0.1 0.6-0.1 1-0.3l0.3 1.9q-0.4 0.1-1.1 0.3-0.8 0.1-1.5 0.1-1.3 0-2.2-0.3-0.9-0.4-1.5-1.1-0.5-0.6-0.8-1.5-0.3-1-0.3-2zm8.6 0q0-1.3 0.3-2.2 0.4-1 1-1.6 0.6-0.6 1.4-0.9 0.8-0.3 1.7-0.3 1.9 0 3 1.2 1.1 1.2 1.1 3.6 0 0.2 0 0.4 0 0.2 0 0.4h-6.3q0.1 1.2 0.8 1.8 0.8 0.6 2.1 0.6 0.8 0 1.5-0.1 0.7-0.2 1-0.3l0.3 1.8q-0.2 0.1-0.5 0.2-0.3 0.1-0.7 0.2-0.4 0-0.9 0.1-0.5 0-0.9 0-1.3 0-2.2-0.3-1-0.4-1.6-1.1-0.6-0.6-0.8-1.5-0.3-0.9-0.3-2zm2.3-1h4q0-0.4-0.1-0.8-0.1-0.5-0.4-0.8-0.2-0.3-0.6-0.4-0.3-0.2-0.8-0.2-0.5 0-0.9 0.2-0.4 0.2-0.6 0.5-0.3 0.3-0.4 0.7-0.2 0.4-0.2 0.8zm11 4.1q0.8 0 1.2-0.2 0.4-0.2 0.4-0.7 0-0.5-0.4-0.8-0.4-0.3-1.4-0.7-0.6-0.2-1.1-0.4-0.5-0.3-0.9-0.6-0.3-0.3-0.6-0.8-0.2-0.5-0.2-1.1 0-1.3 1-2.1 1-0.7 2.6-0.7 0.9 0 1.6 0.1 0.8 0.2 1.2 0.3l-0.4 1.8q-0.4-0.2-1-0.3-0.5-0.1-1.3-0.1-0.6 0-1.1 0.2-0.4 0.2-0.4 0.7 0 0.2 0.1 0.4 0.1 0.2 0.3 0.3 0.2 0.2 0.5 0.4 0.3 0.1 0.8 0.3 0.8 0.3 1.3 0.5 0.6 0.3 0.9 0.7 0.4 0.3 0.6 0.8 0.1 0.4 0.1 1.1 0 1.3-1 2-1 0.7-2.9 0.7-1.2 0-2-0.2-0.7-0.2-1.1-0.3l0.4-1.8q0.5 0.2 1.2 0.3 0.7 0.2 1.6 0.2z"/><path class="e" d="m122.7 177.4q-2.3 0-4.1-0.7-1.8-0.7-3-2-1.3-1.4-1.9-3.3-0.7-2-0.7-4.5 0-2.5 0.8-4.5 0.7-1.9 2.1-3.3 1.3-1.3 3.1-2 1.8-0.7 3.9-0.7 1.2 0 2.3 0.2 1 0.2 1.7 0.4 0.8 0.2 1.3 0.5 0.5 0.2 0.7 0.4l-1.1 3q-0.7-0.5-2-0.9-1.3-0.4-2.8-0.4-1.3 0-2.4 0.5-1.2 0.4-2 1.3-0.8 0.9-1.3 2.3-0.5 1.4-0.5 3.2 0 1.6 0.4 2.9 0.4 1.4 1.1 2.3 0.8 1 1.9 1.6 1.2 0.5 2.8 0.5 2 0 3.2-0.4 1.2-0.4 1.9-0.8l1 3q-0.4 0.3-1 0.5-0.6 0.2-1.4 0.5-0.8 0.2-1.8 0.3-1 0.1-2.2 0.1zm12.1-10.5q0 1.7 0.4 3 0.4 1.4 1.2 2.3 0.7 1 1.8 1.5 1.2 0.5 2.5 0.5 1.4 0 2.5-0.5 1.1-0.5 1.9-1.5 0.8-0.9 1.2-2.3 0.4-1.3 0.4-3 0-1.6-0.4-3-0.4-1.4-1.2-2.3-0.8-0.9-1.9-1.5-1.1-0.5-2.5-0.5-1.3 0-2.5 0.5-1.1 0.6-1.8 1.5-0.8 1-1.2 2.3-0.4 1.4-0.4 3zm15.7 0q0 2.6-0.8 4.6-0.7 2-2.1 3.3-1.3 1.3-3 2-1.8 0.6-3.8 0.6-2 0-3.8-0.6-1.8-0.7-3.1-2-1.4-1.3-2.1-3.3-0.8-2-0.8-4.6 0-2.6 0.8-4.5 0.7-2 2.1-3.3 1.3-1.4 3.1-2.1 1.8-0.6 3.8-0.6 2 0 3.7 0.6 1.8 0.7 3.1 2.1 1.3 1.3 2.1 3.3 0.8 1.9 0.8 4.5zm5-10.1h3.4q0.7 1.2 1.4 2.7 0.8 1.6 1.6 3.4 0.9 1.8 1.6 3.6 0.9 1.8 1.5 3.3 0.7-1.5 1.5-3.3 0.8-1.8 1.6-3.6 0.8-1.8 1.6-3.4 0.8-1.5 1.4-2.7h3.3q0.3 2.3 0.5 4.8 0.3 2.4 0.4 5 0.2 2.6 0.4 5.3 0.1 2.6 0.3 5.1h-3.6q-0.2-3.5-0.3-7.2-0.2-3.8-0.5-7.3-0.3 0.7-0.8 1.6-0.4 1-0.9 2.1-0.5 1.1-1 2.2-0.5 1.2-1 2.3-0.5 1.1-0.9 2-0.4 1-0.7 1.6h-2.7q-0.3-0.6-0.7-1.6-0.4-1-0.9-2-0.5-1.1-1-2.3-0.5-1.2-1-2.2-0.5-1.1-0.9-2.1-0.4-0.9-0.8-1.6-0.3 3.5-0.5 7.3-0.1 3.7-0.2 7.2h-3.6q0.1-2.5 0.2-5.2 0.2-2.7 0.4-5.3 0.2-2.6 0.4-5.1 0.3-2.5 0.5-4.6zm30.4-0.2q4.4 0 6.8 1.6 2.3 1.6 2.3 5 0 1.8-0.6 3.1-0.6 1.2-1.8 2.1-1.2 0.7-2.9 1.1-1.8 0.4-4 0.4h-1.8v7.1h-3.7v-19.9q1.3-0.3 2.9-0.3 1.5-0.2 2.8-0.2zm0.3 3.2q-1.4 0-2.3 0.1v6.9h1.8q2.6 0 4.1-0.8 1.4-0.7 1.4-2.8 0-1-0.4-1.6-0.4-0.7-1-1.1-0.7-0.4-1.6-0.5-0.9-0.2-2-0.2zm28.2 17.2h-4q-0.4-1.2-0.8-2.4-0.4-1.1-0.9-2.3h-8.4q-0.5 1.2-0.9 2.4-0.4 1.1-0.8 2.3h-3.8q1.1-3.2 2.1-6 1.1-2.7 2-5.1 1-2.5 2-4.7 0.9-2.2 1.9-4.4h3.5q1 2.2 2 4.4 0.9 2.2 1.9 4.7 1 2.4 2 5.1 1.1 2.8 2.2 6zm-9.9-16.3q-0.7 1.6-1.5 3.8-0.9 2.2-1.8 4.8h6.6q-0.9-2.6-1.8-4.8-0.9-2.3-1.5-3.8zm29.1 16.3h-3.1q-1-1.7-2.2-3.5-1.2-2-2.5-3.9-1.3-1.9-2.7-3.7-1.3-1.9-2.5-3.3v14.4h-3.7v-20.2h3q1.2 1.3 2.5 3 1.4 1.6 2.7 3.4 1.4 1.8 2.6 3.6 1.3 1.9 2.3 3.4v-13.4h3.6zm11.6-11.2q1.4-2.2 2.6-4.4 1.3-2.2 2.3-4.5h4q-1.6 3.1-3.4 6.1-1.7 3.1-3.7 6.1v7.9h-3.7v-7.8q-2-3.1-3.8-6.2-1.7-3-3.4-6.1h4.3q1.1 2.3 2.3 4.5 1.2 2.2 2.5 4.4zm34.9 11.2h-3.1q-1-1.6-2.2-3.5-1.2-1.9-2.5-3.8-1.3-2-2.7-3.8-1.4-1.8-2.6-3.3v14.4h-3.6v-20.1h3q1.2 1.2 2.5 2.9 1.4 1.7 2.7 3.5 1.4 1.8 2.6 3.6 1.3 1.8 2.3 3.4v-13.4h3.6zm22.2 0h-4q-0.4-1.2-0.8-2.4-0.5-1.1-0.9-2.4h-8.5q-0.4 1.3-0.8 2.5-0.4 1.1-0.8 2.3h-3.8q1.1-3.2 2.1-6 1-2.7 2-5.1 1-2.5 2-4.7 0.9-2.2 1.9-4.4h3.5q1 2.2 2 4.4 0.9 2.2 1.9 4.7 1 2.4 2 5.1 1 2.8 2.2 6zm-9.9-16.3q-0.7 1.6-1.6 3.8-0.8 2.2-1.7 4.8h6.6q-0.9-2.6-1.8-4.8-0.9-2.3-1.5-3.8zm13.4-3.9h3.4q0.7 1.1 1.5 2.7 0.7 1.6 1.6 3.4 0.8 1.8 1.6 3.6 0.8 1.8 1.4 3.3 0.7-1.5 1.5-3.3 0.8-1.8 1.6-3.6 0.8-1.8 1.6-3.4 0.8-1.6 1.4-2.7h3.3q0.3 2.2 0.5 4.7 0.3 2.5 0.4 5.1 0.2 2.6 0.4 5.3 0.2 2.6 0.3 5.1h-3.6q-0.2-3.5-0.3-7.3-0.2-3.7-0.5-7.2-0.3 0.7-0.7 1.6-0.5 1-1 2.1-0.5 1-1 2.2-0.5 1.2-1 2.3-0.5 1.1-0.9 2-0.4 0.9-0.7 1.6h-2.7q-0.3-0.7-0.7-1.6-0.4-1-0.9-2-0.5-1.2-1-2.3-0.5-1.2-1-2.3-0.5-1-0.9-2-0.4-0.9-0.8-1.6-0.3 3.5-0.4 7.2-0.2 3.8-0.3 7.3h-3.6q0.1-2.5 0.2-5.2 0.2-2.7 0.4-5.3 0.2-2.6 0.4-5.1 0.3-2.5 0.5-4.6zm38.4 20.2h-13.7v-20.2h13v3.1h-9.3v5h8.3v3.1h-8.3v5.9h10z"/><path class="m" d="m1124.1 174.3q-1.5 0-2.6-0.5-1.1-0.4-1.9-1.2-0.8-0.9-1.2-2.1-0.4-1.2-0.4-2.8 0-1.6 0.5-2.8 0.5-1.2 1.3-2.1 0.8-0.8 1.9-1.3 1.2-0.4 2.5-0.4 0.7 0 1.4 0.1 0.6 0.1 1.1 0.3 0.5 0.1 0.8 0.3 0.3 0.2 0.4 0.2l-0.7 1.9q-0.4-0.3-1.2-0.5-0.8-0.3-1.8-0.3-0.8 0-1.5 0.3-0.7 0.3-1.2 0.9-0.5 0.5-0.8 1.4-0.3 0.8-0.3 2 0 1 0.2 1.8 0.2 0.8 0.7 1.5 0.5 0.6 1.2 0.9 0.7 0.3 1.8 0.3 1.2 0 1.9-0.2 0.8-0.3 1.2-0.5l0.6 1.9q-0.2 0.1-0.6 0.3-0.3 0.1-0.8 0.3-0.5 0.1-1.2 0.2-0.6 0.1-1.3 0.1zm14.2-5.1q0 1.2-0.3 2.1-0.3 0.9-0.9 1.6-0.6 0.6-1.5 1-0.8 0.4-1.9 0.4-1 0-1.8-0.4-0.8-0.4-1.4-1-0.6-0.7-1-1.6-0.3-0.9-0.3-2.1 0-1.1 0.3-2 0.4-0.9 1-1.6 0.6-0.6 1.4-1 0.8-0.3 1.8-0.3 1 0 1.9 0.3 0.8 0.4 1.4 1 0.6 0.7 1 1.6 0.3 0.9 0.3 2zm-2.2 0q0-1.4-0.7-2.2-0.6-0.8-1.7-0.8-1 0-1.7 0.8-0.6 0.8-0.6 2.2 0 1.5 0.6 2.3 0.7 0.8 1.7 0.8 1.1 0 1.7-0.8 0.7-0.8 0.7-2.3zm4.5 4.8v-9.2q0.6-0.2 1.6-0.3 1.1-0.2 2.3-0.2 1.2 0 1.9 0.3 0.8 0.3 1.3 0.9 0.4 0.6 0.6 1.4 0.2 0.8 0.2 1.8v5.3h-2.2v-5q0-0.8-0.1-1.3-0.1-0.5-0.3-0.9-0.2-0.3-0.6-0.5-0.4-0.1-1-0.1-0.4 0-0.8 0-0.5 0.1-0.7 0.1v7.7zm10.5-3.8v-8.2l2.2-0.4v2.9h3.4v1.8h-3.4v3.9q0 1.1 0.4 1.6 0.3 0.5 1.2 0.5 0.6 0 1.1-0.1 0.4-0.1 0.7-0.2l0.4 1.7q-0.4 0.2-1 0.4-0.7 0.1-1.5 0.1-1 0-1.7-0.3-0.7-0.2-1.1-0.7-0.4-0.6-0.5-1.3-0.2-0.7-0.2-1.7zm11.1 2.3q1 0 1.5-0.2v-2.4q-0.2 0-0.5-0.1-0.4-0.1-0.8-0.1-0.4 0-0.7 0.1-0.4 0.1-0.7 0.2-0.3 0.1-0.5 0.4-0.2 0.3-0.2 0.7 0 0.8 0.5 1.1 0.5 0.3 1.4 0.3zm-0.2-8.2q1.1 0 1.8 0.2 0.8 0.3 1.2 0.8 0.4 0.5 0.6 1.2 0.2 0.7 0.2 1.5v5.8q-0.5 0.1-1.5 0.3-1 0.1-2.3 0.1-0.9 0-1.6-0.2-0.7-0.1-1.2-0.5-0.5-0.4-0.8-0.9-0.3-0.6-0.3-1.5 0-0.8 0.3-1.4 0.4-0.5 0.9-0.9 0.6-0.3 1.3-0.5 0.7-0.1 1.5-0.1 0.3 0 0.7 0 0.4 0.1 0.9 0.2v-0.4q0-0.4-0.1-0.7-0.1-0.4-0.3-0.6-0.2-0.3-0.6-0.4-0.4-0.2-0.9-0.2-0.8 0-1.4 0.1-0.7 0.1-1.1 0.3l-0.3-1.8q0.5-0.2 1.3-0.3 0.8-0.1 1.7-0.1zm6 5q0-1.1 0.3-2 0.3-0.9 0.9-1.6 0.7-0.7 1.5-1.1 0.9-0.3 2-0.3 1.3 0 2.5 0.4l-0.4 1.8q-0.4-0.1-0.9-0.2-0.5-0.1-1-0.1-1.3 0-2 0.8-0.7 0.8-0.7 2.3 0 1.4 0.7 2.2 0.6 0.8 2.1 0.8 0.6 0 1.1-0.1 0.6-0.1 1-0.3l0.3 1.9q-0.4 0.1-1.1 0.3-0.7 0.1-1.5 0.1-1.2 0-2.2-0.3-0.8-0.4-1.4-1.1-0.6-0.6-0.9-1.5-0.3-1-0.3-2zm9 0.9v-8.2l2.2-0.4v2.9h3.4v1.8h-3.4v3.9q0 1.1 0.4 1.6 0.3 0.5 1.2 0.5 0.6 0 1-0.1 0.5-0.1 0.8-0.2l0.4 1.7q-0.4 0.2-1 0.4-0.7 0.1-1.5 0.1-1 0-1.7-0.3-0.7-0.2-1.1-0.7-0.4-0.6-0.5-1.3-0.2-0.7-0.2-1.7zm16.9 4.1q-1.3 0-2.2-0.4-1-0.4-1.6-1-0.6-0.7-0.9-1.6-0.3-0.9-0.3-2v-7.9h2.4v7.7q0 0.8 0.1 1.4 0.2 0.6 0.6 1 0.3 0.4 0.8 0.6 0.5 0.2 1.1 0.2 0.6 0 1.1-0.2 0.5-0.2 0.8-0.6 0.4-0.4 0.6-1 0.2-0.6 0.2-1.4v-7.7h2.3v7.9q0 1.1-0.3 2-0.3 0.9-0.9 1.6-0.6 0.6-1.6 1-0.9 0.4-2.2 0.4zm10.2-1.9q0.9 0 1.3-0.2 0.4-0.2 0.4-0.7 0-0.5-0.5-0.8-0.4-0.3-1.4-0.7-0.6-0.2-1.1-0.4-0.5-0.3-0.8-0.6-0.4-0.3-0.6-0.8-0.2-0.5-0.2-1.1 0-1.3 0.9-2.1 1-0.7 2.7-0.7 0.8 0 1.6 0.1 0.7 0.2 1.1 0.3l-0.4 1.8q-0.4-0.2-0.9-0.3-0.6-0.1-1.3-0.1-0.7 0-1.1 0.2-0.4 0.2-0.4 0.7 0 0.2 0 0.4 0.1 0.2 0.3 0.3 0.2 0.2 0.6 0.4 0.3 0.1 0.8 0.3 0.7 0.3 1.3 0.5 0.5 0.3 0.9 0.7 0.3 0.3 0.5 0.8 0.2 0.4 0.2 1.1 0 1.3-1.1 2-1 0.7-2.8 0.7-1.3 0-2-0.2-0.8-0.2-1.1-0.3l0.4-1.8q0.5 0.2 1.1 0.3 0.7 0.2 1.6 0.2z"/><path class="n" d="m1131.6 368.6c0.5 4.4-2.8 8.4-7.2 8.8-4.5 0.5-8.4-2.7-8.9-7.2-0.5-4.4 2.8-8.4 7.2-8.9 4.5-0.4 8.4 2.8 8.9 7.3z"/><path class="o" d="m1162.2 365.4c0.4 4.4-2.8 8.4-7.2 8.9-4.5 0.4-8.5-2.8-8.9-7.2-0.5-4.5 2.8-8.5 7.2-8.9 4.4-0.5 8.4 2.7 8.9 7.2z"/><path class="p" d="m1192.8 362.2c0.4 4.4-2.8 8.4-7.3 8.9-4.4 0.4-8.4-2.8-8.8-7.2-0.5-4.5 2.7-8.5 7.2-8.9 4.4-0.5 8.4 2.8 8.9 7.2z"/><path class="q" d="m1127.6 689.3l-245.7-26.3c-4.1-0.4-7.4-4.1-7.4-8.2v-17.9c0-4.1 3.3-7.1 7.4-6.6l245.7 26.3c4.1 0.4 7.4 4.1 7.4 8.2v18c0 4-3.3 7-7.4 6.5z"/><path fill-rule="evenodd" class="r" d="m1126.9 682.3l-3.9-4.4c-1.5 1.1-3.4 1.7-5.4 1.4-2.2-0.2-4.4-1.3-6-3.1-3.3-3.6-3.3-9 0-11.9 3.3-3 8.7-2.4 12 1.3 3.1 3.4 3.2 8.4 0.5 11.4l3.9 4.4zm-9.3-5c1.7 0.2 3.3-0.3 4.5-1.4 2.5-2.3 2.5-6.3 0-9.1-1.2-1.4-2.9-2.2-4.5-2.4-1.7-0.2-3.3 0.3-4.6 1.4-2.5 2.2-2.5 6.3 0 9.1 1.3 1.3 2.9 2.2 4.6 2.4z"/><path class="s" d="m846.7 591.9l4.3-22.9 29.5 3.2-1.8-32.5 8.5-3c0 0-12.7-34.4-12.7-34.4-11.2 11.2-22.9 6.2-35.5 11.1-13.4 5.2-16.5 27.5-20.4 38.4-1.8 4.9-14.6 36.9-10.5 40 0 0 23.4 17.5 38.6 0.1z"/><path class="t" d="m850.2 514.5c-1.1 3.5-3.6 6.3-4.7 9.7-4.4-3.5-8.3-5.1-11.8-0.7-1.6 2.1-2.8 11.1 11.1 16.1 0.2 10.6-3.7 25.5-23 22.5-42.1-6.4-28.7-113.4 2.5-89 2.6-3.4 7.6-9.9 20.5-7.4 14.6 2.9 35.5 12.2 48.4 4.8 10 3.9 18.4 63.5-43 44z"/><path class="u" d="m770.4 584.8c-32.5 26.8-54.5 130.4-54.1 141.1 0.4 11.5 9.3 59 23.2 96.9 11-45.8 24.9-191.3 30.9-238z"/><path class="s" d="m1041.4 676.5c0 0 19-14.3 22.4-15.2 3.4-0.9 30.3-3.1 30.3-3.1 0 0 7.5 5-19.8 10.5 0 0 5.9 6.8 7.5 9.6 1.5 2.8-9.9 10.2-9.9 10.2l-5.3-3.1c0 0-11 4.4-18.5 5.3z"/><path class="q" d="m1027.7 677.1l17.9-6.8 9.6 21-19 7.8z"/><path class="q" d="m859.7 587.3l2.6 24.3-69.2-18.6 4.1-20.8c0 0 20-0.8 62.5 15.1z"/><path class="r" d="m883.3 617.4c0 0-54.6-38.5-112.9-32.6 0 0-56.8 111.1-42.6 267.9 0 0 4.9 11.3 15.5 17.1 7 3.9 15.4 7.1 27.1 7.5l14.7-26.4 8 26.4c11.4 7.5 30 10.3 43.3 6.6 12.1-3.4 18.7-16.5 27.5-28 0 0-7.7-173.5 19.4-238.5z"/><path class="u" d="m841.1 816.7l28.3-8.7c0 0 2.6 18.5-8.1 21.6-10.6 3.1-20.2-12.9-20.2-12.9z"/><path class="r" d="m883.3 617.4c0 0 25.7 72.8 38.5 100.1l114.5-45.8 11.8 25.1c0 0-116 54.9-135.8 56.6-19.8 1.8-40.1-48.6-58.6-71.7-18.4-23 29.6-64.3 29.6-64.3z"/><path class="v" d="m910.3 725.5l11.5-8v14.6"/><path class="v" d="m861.3 776.8c0 0-11.6 23-28.9 39.9"/><path class="v" d="m814.2 607c-26.9 56.1-37.3 132.9-28 194.4-12.1-1.4-27.5-1.6-28.7 2.7-1 3.3 30.2 8.3 29.9 10.8-1.4 9.2-25.2 3.7-24.9 8.8 1 5.2 15.1 6 22.6 6.3 0 0 0 9.3 0 20.9"/><path class="v" d="m866.6 700.8c-3.2-29.6-4.3-60.8 16.7-83.4"/><path class="v" d="m737.9 764.8c35.7-25.8 66.8-58.1 91.4-94.7"/><path class="v" d="m760.8 776.8c18.1-13.5 36.7-27.5 48.6-46.7"/><path class="i" d="m968.7 615.2c-0.2 2.3-2.3 4-4.6 3.8-2.4-0.3-4.1-2.4-3.8-4.7 0.2-2.3 2.3-4 4.6-3.8 2.4 0.2 4.1 2.3 3.8 4.7z"/><path class="i" d="m984.9 616.8c-0.3 2.4-2.4 4.1-4.7 3.8-2.4-0.2-4.1-2.3-3.8-4.6 0.2-2.4 2.3-4.1 4.7-3.9 2.3 0.3 4 2.4 3.8 4.7z"/><path class="i" d="m1001 618.5c-0.2 2.3-2.3 4-4.7 3.8-2.3-0.2-4-2.3-3.8-4.7 0.3-2.3 2.4-4 4.7-3.8 2.3 0.2 4 2.3 3.8 4.7z"/><path class="o" d="m1075 591.7l-115.4-11.6v-155.5l115.4-11.6z"/><path class="w" d="m1069.5 583.3l-104.5-10.6v-140.7l104.5-10.6z"/><path class="q" d="m1061.6 587.9l-110.5-11.1v-148.9l110.5-11.2z"/><path class="p" d="m954.5 565v27.4l6.1-2.7 6.1 3.9v-28.6z"/><path class="x" d="m1048.9 590.9l-114.5-11.5v-154.1l114.5-11.6z"/><path class="y" d="m953.4 450.2v24.7l76.6-4.2v-28.2z"/><path class="o" d="m941.3 424.6v155.5l3.1 0.3v-156.1z"/><g style="display:none"><path class="z" d="m770.2 930.9q-1.3 1.4-2.2 2.9l-0.9-0.4c-0.2-0.6-0.7-1.1-1.4-1-0.6 0.1-1.1 0.7-1 1.4 0.1 0.6 0.7 1.1 1.3 1q0.2 0 0.4-0.1l0.9 0.5q-0.8 1.7-1.1 3.5l1.5 0.2c0.5-2.6 1.7-5 3.6-6.9z"/><path class="z" d="m781.2 926.3q-0.5 0-1 0.1l-0.2-1.3c0.4-0.3 0.6-0.8 0.5-1.3 0-0.8-0.8-1.3-1.5-1.2-0.8 0.1-1.4 0.8-1.3 1.6 0.1 0.5 0.4 0.9 0.8 1.1l0.2 1.2q-2.2 0.4-4.2 1.3l0.7 1.4q2.8-1.4 6-1.4 1.5 0 2.9 0.4l0.4-1.5q-1.7-0.4-3.3-0.4z"/><path class="z" d="m794.4 931.4c0.7-0.1 1.1-0.7 1-1.3 0-0.7-0.6-1.2-1.3-1.1-0.6 0.1-1.1 0.6-1.1 1.2l-0.8 0.8q-1.3-1.3-2.8-2.3l-0.8 1.3c2.2 1.4 4 3.4 5.1 5.8l1.4-0.6q-0.8-1.7-1.9-3.1l0.8-0.7q0.2 0 0.4 0z"/><path class="z" d="m780.1 946.7q-1.2 0.1-2.3 0.1c-1.8 0-3.5-0.1-5-0.3-0.8-0.2-1.7-0.4-2.5-0.6 2.1 3.7 6.1 6.2 10.8 6.2 5.7 0 10.5-3.8 11.9-9q-2.1 1.4-5 2.3c-2.3 0.7-5.1 1.2-7.9 1.3z"/><path fill-rule="evenodd" class="z" d="m793.2 939.8q0.1 0.5 0.1 1.1c-2.7 2.4-7.5 4-13.3 4.3-5.3 0.3-9.4-0.5-10.7-1.4q-0.3-1.3-0.3-2.6c0-6.5 5.5-11.8 12.2-11.8 6.1 0 11.3 4.4 12 10.4zm-12.6-1.1c0-2.1-1.7-3.7-3.7-3.7-2.1 0-3.7 1.6-3.7 3.7 0 2 1.6 3.7 3.7 3.7 2 0 3.7-1.7 3.7-3.7zm8.5-0.8c0-1.5-1.3-2.8-2.8-2.8-1.5 0-2.7 1.3-2.7 2.8 0 1.5 1.2 2.7 2.7 2.7 1.5 0 2.8-1.2 2.8-2.7z"/><path class="z" d="m813.2 933.1c-0.6-0.2-1.6-0.6-2.8-0.5-1.1 0.2-1.7 0.7-1.7 2v1.8h4.5v3.4h-4.5v10.9h-3.8v-10.9h-2.7v-3.4h2.7v-1.8c0-3.4 1.8-5.6 5.1-5.6 1.3 0 2.3 0.3 3.2 0.6z"/><path class="z" d="m822.6 939.8q-0.5-0.1-1.1-0.1c-1.7 0-3 1.1-3 3.2v7.8h-3.8v-14.3h3.7v1.5c0.9-1.3 2.3-1.9 4-1.9 0.9 0 1.7 0.2 2.2 0.7z"/><path fill-rule="evenodd" class="z" d="m837.9 943.5c0 0.5 0 1 0 1.3h-10.2c0.4 2.1 1.9 3 3.7 3 1.2 0 2.6-0.5 3.6-1.4l2.3 2.5c-1.7 1.5-3.7 2.2-6.1 2.2-4.4 0-7.5-3-7.5-7.5 0-4.5 3-7.6 7.3-7.6 4.1 0 6.9 3 6.9 7.5zm-10.2-1.3h6.4c-0.4-1.9-1.5-2.9-3.2-2.9-1.8 0-2.9 1.1-3.2 2.9z"/><path fill-rule="evenodd" class="z" d="m853.2 943.5c0 0.5 0 1 0 1.3h-10.2c0.4 2.1 1.9 3 3.7 3 1.2 0 2.6-0.5 3.6-1.4l2.3 2.5c-1.7 1.5-3.7 2.2-6.1 2.2-4.4 0-7.5-3-7.5-7.5 0-4.5 3-7.6 7.3-7.6 4.1 0 6.9 3 6.9 7.5zm-10.2-1.3h6.4c-0.4-1.9-1.5-2.9-3.2-2.9-1.8 0-2.9 1.1-3.2 2.9z"/><path fill-rule="evenodd" class="z" d="m869.9 943.5c0 4.3-3 7.6-6.9 7.6-1.9 0-3.3-0.8-4.2-1.9v7.4h-3.9v-20.2h3.8v1.5c0.9-1.1 2.3-1.9 4.3-1.9 3.9 0 6.9 3.2 6.9 7.5zm-11.3 0c0 2.3 1.5 4 3.7 4 2.2 0 3.7-1.8 3.7-4 0-2.2-1.5-3.9-3.7-3.9-2.2 0-3.7 1.7-3.7 3.9z"/><path class="z" d="m876.1 931.7c0 1.4-1 2.4-2.4 2.4-1.4 0-2.5-1-2.5-2.4 0-1.4 1.1-2.5 2.5-2.5 1.4 0 2.4 1.1 2.4 2.5zm-0.5 19h-3.8v-14.3h3.8z"/><path class="z" d="m882.1 941.5l5.4-5.1h4.7l-7 6.7 7 7.6h-4.7l-5.4-5.8v5.8h-3.9v-21.3h3.9z"/><path fill-rule="evenodd" class="z" d="m618.8 950.6v-2.1c-1 1.4-2.8 2.4-4.8 2.4-3.6 0-6.2-2.8-6.2-7.4 0-4.5 2.5-7.4 6.2-7.4 2 0 3.7 0.9 4.8 2.5v-7.6h2.2v19.6zm0-3.9v-6.4c-0.8-1.2-2.5-2.3-4.2-2.3-2.9 0-4.6 2.4-4.6 5.5 0 3.2 1.7 5.5 4.6 5.5 1.7 0 3.4-1 4.2-2.3z"/><path fill-rule="evenodd" class="z" d="m623.9 943.5c0-4.1 2.9-7.4 6.9-7.4 4.3 0 6.8 3.3 6.8 7.6v0.5h-11.4c0.2 2.7 2 4.9 5.1 4.9 1.6 0 3.2-0.6 4.3-1.8l1.1 1.5c-1.4 1.4-3.3 2.1-5.6 2.1-4.2 0-7.2-3-7.2-7.4zm6.9-5.6c-3 0-4.5 2.5-4.6 4.7h9.3c-0.1-2.1-1.5-4.7-4.7-4.7z"/><path class="z" d="m639.2 948.7l1.2-1.6c0.9 1.1 2.7 2 4.6 2 2.2 0 3.4-1 3.4-2.4 0-3.4-8.8-1.3-8.8-6.6 0-2.1 1.9-4 5.3-4 2.4 0 4.1 0.9 5.2 2l-1 1.6c-0.9-1.1-2.4-1.8-4.2-1.8-2 0-3.2 0.9-3.2 2.2 0 3.1 8.8 1 8.8 6.6 0 2.3-1.9 4.2-5.6 4.2-2.3 0-4.3-0.7-5.7-2.2z"/><path class="z" d="m653 932.9c0-0.8 0.6-1.5 1.4-1.5 0.8 0 1.5 0.7 1.5 1.5 0 0.9-0.7 1.5-1.5 1.5-0.8 0-1.4-0.6-1.4-1.5zm0.3 17.7v-14.2h2.2v14.2z"/><path fill-rule="evenodd" class="z" d="m659.2 954.2l1.1-1.6c1.1 1.4 2.6 1.9 4.6 1.9 2.3 0 4.5-1.1 4.5-4.2v-2.1c-1 1.5-2.7 2.6-4.7 2.6-3.7 0-6.3-2.8-6.3-7.4 0-4.5 2.6-7.3 6.3-7.3 1.9 0 3.6 0.9 4.7 2.5v-2.2h2.2v13.8c0 4.7-3.3 6.1-6.7 6.1-2.4 0-4.1-0.4-5.7-2.1zm10.2-7.7v-6.2c-0.7-1.2-2.4-2.3-4.2-2.3-2.8 0-4.5 2.3-4.5 5.4 0 3.1 1.7 5.4 4.5 5.4 1.8 0 3.5-1.1 4.2-2.3z"/><path class="z" d="m684.8 950.6v-9.3c0-2.5-1.2-3.3-3.1-3.3-1.8 0-3.4 1.1-4.2 2.2v10.4h-2.2v-14.2h2.2v2.1c1-1.2 2.9-2.4 5-2.4 3 0 4.5 1.5 4.5 4.5v10z"/><path fill-rule="evenodd" class="z" d="m689.9 943.5c0-4.1 2.9-7.4 6.9-7.4 4.3 0 6.8 3.3 6.8 7.6v0.5h-11.4c0.2 2.7 2 4.9 5.1 4.9 1.6 0 3.2-0.6 4.3-1.8l1.1 1.5c-1.4 1.4-3.3 2.1-5.6 2.1-4.2 0-7.2-3-7.2-7.4zm6.9-5.6c-3 0-4.5 2.5-4.6 4.7h9.3c-0.1-2.1-1.5-4.7-4.7-4.7z"/><path fill-rule="evenodd" class="z" d="m716.7 950.6v-2.1c-1.1 1.4-2.8 2.4-4.8 2.4-3.7 0-6.3-2.8-6.3-7.4 0-4.5 2.6-7.4 6.3-7.4 1.9 0 3.7 0.9 4.8 2.5v-7.6h2.2v19.6zm0-3.9v-6.4c-0.8-1.2-2.5-2.3-4.3-2.3-2.8 0-4.5 2.4-4.5 5.5 0 3.2 1.7 5.5 4.5 5.5 1.8 0 3.5-1 4.3-2.3z"/><path fill-rule="evenodd" class="z" d="m729.4 950.6v-19.6h2.2v7.6c1.1-1.6 2.8-2.5 4.8-2.5 3.6 0 6.3 2.9 6.3 7.4 0 4.6-2.7 7.4-6.3 7.4-2 0-3.8-1-4.8-2.4v2.1zm6.4-1.6c2.9 0 4.6-2.3 4.6-5.5 0-3.1-1.7-5.5-4.6-5.5-1.7 0-3.5 1.1-4.2 2.3v6.4c0.7 1.3 2.5 2.3 4.2 2.3z"/><path class="z" d="m745.1 954.1c0.3 0.2 0.8 0.3 1.2 0.3 0.9 0 1.6-0.4 2.1-1.5l0.9-2.2-5.9-14.3h2.4l4.7 11.6 4.7-11.6h2.4l-7.1 17c-0.9 2.1-2.3 2.9-4.2 2.9-0.5 0-1.2-0.1-1.6-0.2z"/></g></svg>